<svg width="50" height="50" viewBox="0 0 50 50" fill="none" xmlns="http://www.w3.org/2000/svg">
<g clip-path="url(#clip0_1_133)">
<path fill-rule="evenodd" clip-rule="evenodd" d="M25.0003 28.2143C24.0003 28.2143 23.0717 28.6429 22.4289 29.2857C21.786 29.9286 21.3574 30.8571 21.3574 31.8571C21.3574 32.7857 21.7146 33.6429 22.286 34.2857C22.286 34.2857 22.286 34.2857 22.3574 34.3572L22.4289 34.4286C23.0717 35.0714 24.0003 35.5 25.0003 35.5C26.0003 35.5 26.9288 35.0714 27.5717 34.4286C28.2146 33.7857 28.6431 32.8571 28.6431 31.8571C28.6431 30.8571 28.2146 29.9286 27.5717 29.2857C26.9288 28.5714 26.0003 28.2143 25.0003 28.2143Z" fill="white"/>
<path fill-rule="evenodd" clip-rule="evenodd" d="M24.4286 23.3572C24.4286 23.0714 24.6429 22.7857 25 22.7857C25.2857 22.7857 25.5714 23.0714 25.5714 23.3572V27.1429C26.6429 27.2857 27.6429 27.7857 28.3571 28.5C29.2143 29.3572 29.7143 30.5714 29.7143 31.8572C29.7143 32.8572 29.4286 33.7857 28.8571 34.5714L31.8571 37.5714C32.0714 37.7857 32.0714 38.1429 31.8571 38.3572C31.6429 38.5714 31.2857 38.5714 31.0714 38.3572L28.1429 35.3572C27.2857 36.1429 26.2143 36.5714 24.9286 36.5714C23.7143 36.5714 22.6429 36.1429 21.8571 35.4286L19 38.2857C18.7857 38.5 18.4286 38.5 18.2143 38.2857C18 38.0714 18 37.7143 18.2143 37.5L21.1429 34.5714C20.5714 33.7857 20.2143 32.8572 20.2143 31.7857C20.2143 30.5 20.7143 29.2857 21.5714 28.4286C22.2857 27.7143 23.2857 27.2143 24.3571 27.0714V23.3572H24.4286ZM27.7857 12.4286C29.2143 12.8572 30.5 13.6429 31.5714 14.7143C33.2143 16.3572 34.2857 18.7143 34.2857 21.2143C34.2857 21.5 34 21.7857 33.7143 21.7857H16.3571C16.0714 21.7857 15.7857 21.5 15.7857 21.2143C15.7857 18.6429 16.7857 16.3572 18.5 14.7143C19.5 13.7143 20.7857 12.8572 22.2143 12.4286C21.7143 12.1429 21.2143 11.7857 20.7857 11.4286C19.7143 10.3572 19.0714 8.92859 19.0714 7.28573C19.0714 5.64287 19.7143 4.2143 20.7857 3.14287C21.8571 2.07145 23.2857 1.42859 24.9286 1.42859C26.5714 1.42859 28 2.07145 29.0714 3.14287C30.1429 4.2143 30.7857 5.64287 30.7857 7.28573C30.7857 8.92859 30.1429 10.3572 29.0714 11.4286C28.7143 11.7857 28.2857 12.1429 27.7857 12.4286ZM30.7143 15.5C29.2857 14.0714 27.2143 13.1429 25 13.1429C22.7857 13.1429 20.7143 14.0714 19.2857 15.5C17.9286 16.8572 17.0714 18.6429 16.9286 20.6429H33.0714C32.9286 18.6429 32.0714 16.7857 30.7143 15.5ZM28.3571 3.85716C27.5 3.00002 26.2857 2.42859 25 2.42859C23.7143 2.42859 22.5 2.92859 21.6429 3.85716C20.7857 4.7143 20.2143 5.92859 20.2143 7.2143C20.2143 8.50002 20.7143 9.7143 21.6429 10.5714C22.5 11.4286 23.7143 11.9286 25 11.9286C26.2857 11.9286 27.5 11.4286 28.3571 10.5714C29.2143 9.7143 29.7857 8.50002 29.7857 7.2143C29.7857 5.92859 29.2143 4.7143 28.3571 3.85716ZM43.5714 38.5C44.0714 38.2143 44.5714 37.8572 44.9286 37.5C46 36.4286 46.6429 35 46.6429 33.3572C46.6429 31.7143 46 30.2857 44.9286 29.2143C43.8571 28.1429 42.4286 27.5 40.7857 27.5C39.1429 27.5 37.7143 28.1429 36.6429 29.2143C35.5714 30.2857 34.9286 31.7143 34.9286 33.3572C34.9286 35 35.5714 36.4286 36.6429 37.5C37.0714 37.9286 37.5 38.2857 38.0714 38.5C36.6429 38.9286 35.3571 39.7143 34.3571 40.7857C32.7143 42.4286 31.6429 44.7857 31.6429 47.2857C31.6429 47.5714 31.8571 47.8572 32.2143 47.8572H49.5C49.7857 47.8572 50.0714 47.5714 50.0714 47.2857C50.0714 44.7143 49.0714 42.4286 47.3571 40.7857C46.2857 39.7857 45 39 43.5714 38.5ZM46.5 41.5714C47.8571 42.9286 48.7143 44.7143 48.8571 46.7143H32.7143C32.8571 44.7143 33.7143 42.8572 35.0714 41.5714C36.5 40.1429 38.5714 39.2143 40.7857 39.2143C43 39.2143 45.0714 40.1429 46.5 41.5714ZM44.1429 30C45 30.8572 45.5714 32.0714 45.5714 33.3572C45.5714 34.6429 45.0714 35.8572 44.1429 36.7143C43.2857 37.5714 42.0714 38.0714 40.7857 38.0714C39.5 38.0714 38.2857 37.5714 37.4286 36.7143C36.5714 35.8572 36.0714 34.6429 36.0714 33.3572C36.0714 32.0714 36.5714 30.8572 37.4286 30C38.2857 29.1429 39.5 28.5714 40.7857 28.5714C42.0714 28.5714 43.2857 29.1429 44.1429 30ZM11.9286 38.5C12.4286 38.2143 12.9286 37.8572 13.2857 37.5C14.3571 36.4286 15 35 15 33.3572C15 31.7143 14.3571 30.2857 13.2857 29.2143C12.2143 28.1429 10.7857 27.5 9.14286 27.5C7.5 27.5 6.07143 28.1429 5 29.2143C3.92857 30.2857 3.28571 31.7143 3.28571 33.3572C3.28571 35 3.92857 36.4286 5 37.5C5.42857 37.9286 5.85714 38.2857 6.42857 38.5C5 38.9286 3.71429 39.7143 2.71429 40.7857C1 42.5 0 44.7857 0 47.2857C0 47.6429 0.285714 47.8572 0.571429 47.8572H17.8571C18.1429 47.8572 18.4286 47.5714 18.4286 47.2857C18.4286 44.7143 17.4286 42.4286 15.7143 40.7857C14.6429 39.7857 13.3571 39 11.9286 38.5ZM14.9286 41.5714C16.2857 42.9286 17.1429 44.7143 17.2857 46.7143H1.14286C1.28571 44.7143 2.14286 42.8572 3.5 41.5714C4.92857 40.1429 7 39.2143 9.21428 39.2143C11.4286 39.2143 13.4286 40.1429 14.9286 41.5714ZM12.5714 30C13.4286 30.8572 14 32.0714 14 33.3572C14 34.6429 13.5 35.8572 12.6429 36.7143C11.7857 37.5714 10.5714 38.0714 9.28571 38.0714C8 38.0714 6.78571 37.5714 5.92857 36.7143C5.07143 35.8572 4.57143 34.6429 4.57143 33.3572C4.57143 32.0714 5.07143 30.8572 5.92857 30C6.78571 29.1429 8 28.5714 9.28571 28.5714C10.5 28.5714 11.7143 29.1429 12.5714 30ZM25 28.2143C24 28.2143 23.0714 28.6429 22.4286 29.2857C21.7857 29.9286 21.3571 30.8572 21.3571 31.8572C21.3571 32.7857 21.7143 33.6429 22.2857 34.2857C22.2857 34.2857 22.2857 34.2857 22.3571 34.3572L22.4286 34.4286C23.0714 35.0714 24 35.5 25 35.5C26 35.5 26.9286 35.0714 27.5714 34.4286C28.2143 33.7857 28.6429 32.8572 28.6429 31.8572C28.6429 30.8572 28.2143 29.9286 27.5714 29.2857C26.9286 28.5714 26 28.2143 25 28.2143Z" fill="#3C6EB2"/>
</g>
<defs>
<clipPath id="clip0_1_133">
<rect width="50" height="50" fill="white"/>
</clipPath>
</defs>
</svg>
