<svg width="51" height="51" viewBox="0 0 51 51" fill="none" xmlns="http://www.w3.org/2000/svg">
<path d="M42.1538 21.42C42.1538 28.6442 37.0234 35.7875 31.6526 41.2462C28.9943 43.9479 26.3323 46.182 24.3333 47.7412C23.3346 48.5201 22.5035 49.1291 21.9238 49.5421C21.7955 49.6335 21.6796 49.7152 21.5769 49.7871C21.4742 49.7152 21.3583 49.6335 21.23 49.5421C20.6504 49.1291 19.8192 48.5201 18.8206 47.7412C16.8216 46.182 14.1596 43.9479 11.5013 41.2462C6.13048 35.7875 1 28.6442 1 21.42C1 16.0066 3.16613 10.8135 7.02425 6.98346C10.8826 3.15315 16.1172 1 21.5769 1C27.0366 1 32.2712 3.15315 36.1296 6.98346C39.9877 10.8135 42.1538 16.0066 42.1538 21.42Z" stroke="#0C3165" stroke-width="2" stroke-linecap="round" stroke-linejoin="round"/>
<path d="M21.5767 26.4808C24.285 26.4808 26.4805 24.2853 26.4805 21.5769C26.4805 18.8686 24.285 16.6731 21.5767 16.6731C18.8684 16.6731 16.6729 18.8686 16.6729 21.5769C16.6729 24.2853 18.8684 26.4808 21.5767 26.4808Z" fill="#828F96"/>
</svg>
