<svg width="50" height="50" viewBox="0 0 50 50" fill="none" xmlns="http://www.w3.org/2000/svg">
<path fill-rule="evenodd" clip-rule="evenodd" d="M29.7815 14.792C29.6067 14.6755 29.3925 14.6559 29.2099 14.6924C29.0273 14.7289 28.8371 14.8294 28.7205 15.0042L28.7163 15.0106L28.7124 15.0173L17.5198 34.2855C16.9945 34.1689 16.4445 34.1158 15.9411 34.2569C15.1521 34.4181 14.4536 34.9672 14.0655 35.7387L9.99869 42.802C9.53388 43.5779 9.45543 44.4359 9.6891 45.2147C9.91756 45.9763 10.3824 46.685 11.1739 47.0808C11.9224 47.4551 12.7706 47.6187 13.5605 47.3857C14.3488 47.2241 15.0466 46.6752 15.4345 45.9043L19.5012 38.841C19.9661 38.0651 20.0445 37.2071 19.8109 36.4282L19.8027 36.4008L19.7885 36.376C19.7607 36.3274 19.7334 36.2791 19.7062 36.2309L19.7062 36.2308C19.4866 35.8418 19.2736 35.4646 18.8886 35.0935L29.9987 15.8454C30.1108 15.6721 30.1293 15.4613 30.0933 15.2814C30.0568 15.0988 29.9563 14.9086 29.7815 14.792ZM16.2829 35.7404C16.7139 35.6173 17.0781 35.6758 17.4596 35.8665C17.8062 36.0398 18.0577 36.3978 18.1882 36.8544C18.3106 37.283 18.2535 37.6455 18.0653 38.0247L13.9976 45.0896L13.9939 45.096L13.9907 45.1025C13.8174 45.4491 13.4593 45.7006 13.0027 45.8311C12.5718 45.9542 12.2076 45.8957 11.8261 45.705C11.4795 45.5317 11.228 45.1737 11.0975 44.7171C10.9751 44.2885 11.0322 43.926 11.2204 43.5468L15.2881 36.4819L15.2917 36.4756L15.295 36.469C15.4683 36.1224 15.8263 35.8709 16.2829 35.7404Z" fill="#828F96"/>
<path fill-rule="evenodd" clip-rule="evenodd" d="M36.4281 10.9999L39.7853 12.9285L41.4281 10.2142C41.7139 9.7142 41.7853 9.14277 41.6424 8.57134C41.4996 8.07134 41.1424 7.57134 40.6424 7.28562L30.7853 1.64277C30.2853 1.35705 29.7139 1.28562 29.1424 1.42848C28.6424 1.57134 28.1424 1.92848 27.8567 2.42848L26.3567 5.28562L29.7139 7.2142C29.9281 7.35705 29.9996 7.7142 29.8567 7.92848C29.7139 8.14277 29.3567 8.2142 29.1424 8.07134L25.7853 6.14277L23.7139 9.7142L27.071 11.6428C27.3567 11.7856 27.4281 12.1428 27.2853 12.3571C27.1424 12.5713 26.7853 12.6428 26.571 12.4999L23.2139 10.5713L21.1424 14.1428L24.4996 16.0713C24.7139 16.2142 24.7853 16.5713 24.6424 16.7856C24.4996 16.9999 24.1424 17.0713 23.9281 16.9285L20.571 14.9999L18.4996 18.5713L21.9281 20.5713C22.2139 20.7142 22.2853 21.0713 22.1424 21.2856C21.9996 21.4999 21.6424 21.5713 21.4281 21.4285L18.071 19.4999L15.9996 23.0713L19.3567 24.9285C19.6424 25.0713 19.7139 25.4285 19.571 25.6428C19.4281 25.8571 19.071 25.9285 18.8567 25.7856L15.4996 23.8571L12.8567 28.2856V35.3571C12.8567 35.4285 12.8567 35.5713 12.7853 35.6428L8.92814 42.2856C8.35671 43.2856 8.28528 44.4285 8.49957 45.4285C8.85671 46.4999 9.49957 47.4285 10.4996 47.9999C11.4996 48.5713 12.6424 48.6428 13.6424 48.4285C14.7139 48.0713 15.6424 47.4285 16.2139 46.4285L19.9281 39.6428C19.9281 39.5382 19.9664 39.5102 20.015 39.4746C20.0327 39.4616 20.0519 39.4476 20.071 39.4285L26.2139 35.9285L28.8567 31.4999L25.4996 29.5713C25.2853 29.4285 25.2139 29.0713 25.3567 28.8571C25.4996 28.6428 25.8567 28.5713 26.071 28.7142L29.4281 30.6428L31.4996 27.0713L28.1424 25.1428C27.8567 24.9999 27.7853 24.6428 27.9281 24.4285C28.071 24.2142 28.4281 24.1428 28.6424 24.2856L31.9996 26.2142L34.071 22.6428L30.7139 20.7142C30.4996 20.5713 30.4281 20.2142 30.571 19.9999C30.7139 19.7856 31.071 19.7142 31.2853 19.8571L34.6424 21.7856L36.7139 18.2142L33.3567 16.2856C33.071 16.1428 32.9996 15.7856 33.1424 15.5713C33.2853 15.3571 33.6424 15.2856 33.8567 15.4285L37.2139 17.3571L39.2853 13.7856L35.9281 11.8571C35.6424 11.7142 35.571 11.3571 35.7139 11.1428C35.8567 10.9285 36.2139 10.8571 36.4281 10.9999ZM41.1424 6.28562C41.9281 6.78562 42.4281 7.49991 42.6424 8.28562C42.8567 9.07134 42.7853 9.92848 42.4996 10.7142L40.571 13.9999L37.9281 18.4285L35.2853 22.8571L32.6424 27.2856L29.9996 31.7142L27.071 36.7856C27.0234 36.8809 26.9758 36.9126 26.9281 36.9444C26.9043 36.9602 26.8805 36.9761 26.8567 36.9999L20.7139 40.4999L16.9281 47.0713C16.2139 48.2856 15.071 49.2142 13.7853 49.4999C12.4996 49.8571 10.9996 49.7142 9.78528 48.9999C8.571 48.2856 7.64243 47.1428 7.35671 45.8571C7.071 44.5713 7.21386 43.1428 7.92814 41.8571L11.7139 35.2856V28.2142C11.7139 28.1428 11.7139 28.0713 11.7853 27.9999L14.571 22.8571L17.1424 18.3571L19.7853 13.9285L22.4281 9.49991L24.9996 5.07134L26.9281 1.85705C27.4281 1.07134 28.1424 0.571339 28.9281 0.357053C29.7139 0.0713385 30.571 0.142767 31.3567 0.642767L41.1424 6.28562Z" fill="#0C3165"/>
</svg>
