<svg width="50" height="50" viewBox="0 0 50 50" fill="none" xmlns="http://www.w3.org/2000/svg">
<g clip-path="url(#clip0_1_138)">
<path fill-rule="evenodd" clip-rule="evenodd" d="M22.9288 13.4285L18.8574 13.7857L21.9289 16.5C22.0717 16.6428 22.1431 16.8571 22.0717 17.0714L21.1431 21.0714L24.6431 19C24.786 18.9285 25.0717 18.8571 25.2146 19L28.7146 21.0714L27.8574 17.1428C27.786 16.9285 27.8574 16.7143 28.0003 16.5714L31.0717 13.8571L27.1431 13.4285C26.9289 13.4285 26.7146 13.2857 26.6431 13.0714L25.0003 9.35712L23.3574 13.0714C23.286 13.2857 23.1431 13.4285 22.9288 13.4285Z" fill="white"/>
<path fill-rule="evenodd" clip-rule="evenodd" d="M11.1429 0.0714111H38.8571C39.1429 0.0714111 39.4286 0.357125 39.4286 0.64284V3.57141H45.2143C46.1429 3.57141 47 3.92855 47.5714 4.57141C48.2143 5.21427 48.5714 5.99998 48.5714 6.92855V18.2143C48.5714 18.7857 48.4286 19.2857 48.2143 19.7143C48 20.1428 47.6429 20.5714 47.2143 20.9286L39.2857 26.7143C39.2857 26.7143 39.2143 26.7143 39.2143 26.7857L31.7857 32.1428C31.5 32.3571 31.2857 32.6428 31.0714 32.9285C30.9286 33.2143 30.8571 33.5714 30.8571 33.9286V41.8571H36C36.9286 41.8571 37.7857 42.2143 38.3571 42.8571C39 43.5 39.3571 44.2857 39.3571 45.2143V49.5C39.3571 49.7857 39.0714 50.0714 38.7857 50.0714H11.1429C10.8571 50.0714 10.5714 49.7857 10.5714 49.5V45.2143C10.5714 44.2857 10.9286 43.4285 11.5714 42.8571C12.2143 42.2143 13 41.8571 13.9286 41.8571H19.5714V34.4286C19.5714 34.0714 19.5 33.7143 19.3571 33.4285C19.2143 33.1428 19 32.8571 18.7143 32.6428L10.8571 26.7857L2.85714 20.8571C2.42857 20.5 2.07143 20.1428 1.85714 19.6428C1.64286 19.2143 1.5 18.6428 1.5 18.1428V6.92855C1.5 5.99998 1.85714 5.14284 2.5 4.57141C3.14286 3.92855 3.92857 3.57141 4.85714 3.57141H10.6429V0.64284C10.5714 0.357125 10.8571 0.0714111 11.1429 0.0714111ZM30.2857 43H20.1429H13.9286C13.2857 43 12.7143 43.2857 12.3571 43.6428C11.9286 44.0714 11.7143 44.6428 11.7143 45.2143V48.9285H38.2857V45.2143C38.2857 44.5714 38 44 37.6429 43.6428C37.2143 43.2143 36.6429 43 36.0714 43H30.2857V43ZM17.5 12.7857C17.3571 12.7857 17.2143 12.8571 17.0714 13C16.8571 13.2143 16.8571 13.5714 17.1429 13.7857L20.9286 17.1428L19.8571 22.0714C19.7857 22.2143 19.8571 22.3571 19.9286 22.5C20.0714 22.7857 20.4286 22.8571 20.7143 22.7143L25.0714 20.1428L29.4286 22.7143C29.5714 22.7857 29.7143 22.7857 29.8571 22.7857C30.1429 22.7143 30.3571 22.4286 30.2857 22.1428L29.0714 17.1428L32.8571 13.7857C32.9286 13.7143 33 13.5714 33.0714 13.4286C33.0714 13.1428 32.8571 12.8571 32.5714 12.7857L27.5714 12.2857L25.5714 7.64284C25.5 7.49998 25.4286 7.42855 25.2857 7.35712C25 7.21427 24.6429 7.35712 24.5714 7.64284L22.5714 12.2857L17.5 12.7857ZM22.9286 13.4286L18.8571 13.7857L21.9286 16.5C22.0714 16.6428 22.1429 16.8571 22.0714 17.0714L21.1429 21.0714L24.6429 19C24.7857 18.9286 25.0714 18.8571 25.2143 19L28.7143 21.0714L27.8571 17.1428C27.7857 16.9286 27.8571 16.7143 28 16.5714L31.0714 13.8571L27.1429 13.4286C26.9286 13.4286 26.7143 13.2857 26.6429 13.0714L25 9.35712L23.3571 13.0714C23.2857 13.2857 23.1429 13.4286 22.9286 13.4286ZM39.4286 4.64284V25.1428L46.5 19.9286C46.7857 19.7143 47 19.4286 47.2143 19.1428C47.3571 18.8571 47.4286 18.5 47.4286 18.1428V6.92855C47.4286 6.2857 47.1429 5.71427 46.7857 5.35712C46.3571 4.92855 45.7857 4.71427 45.2143 4.71427H39.4286V4.64284ZM10.5714 25.1428V4.64284H4.85714C4.21429 4.64284 3.64286 4.92855 3.28571 5.2857C2.85714 5.71427 2.57143 6.2857 2.57143 6.92855V18.2143C2.57143 18.5714 2.64286 18.9286 2.78571 19.2143C2.92857 19.5 3.14286 19.7857 3.5 20L10.5714 25.1428ZM38.2857 1.21427H11.7143V4.14284V26L19.3571 31.7143C19.7857 32.0714 20.1429 32.4285 20.3571 32.9285C20.5714 33.3571 20.7143 33.9286 20.7143 34.4286V41.9285H29.7857V33.9286C29.7857 33.3571 29.9286 32.8571 30.1429 32.4286C30.3571 32 30.7143 31.5714 31.1429 31.2143L38.2857 26V4.07141V1.21427V1.21427Z" fill="#3C6EB2"/>
</g>
<defs>
<clipPath id="clip0_1_138">
<rect width="50" height="50" fill="white"/>
</clipPath>
</defs>
</svg>
