<svg width="50" height="50" viewBox="0 0 50 50" fill="none" xmlns="http://www.w3.org/2000/svg">
<path d="M23.446 29.1685L24.1162 28.8184L24.7962 29.1491L29.346 31.3612L35.167 27.8018V7.85718H14.8337V28.3023L19.3764 31.2937L23.446 29.1685Z" stroke="#D63028" stroke-width="3"/>
<path d="M10 15.0857V5.09821C10.0006 4.54193 10.2203 4.00861 10.6109 3.61526C11.0015 3.2219 11.531 3.00064 12.0833 3H37.9167C38.469 3.00064 38.9985 3.2219 39.3891 3.61526C39.7797 4.00861 39.9994 4.54193 40 5.09821V15.0857L50 22.279V50H1.19209e-06V22.279L10 15.0857ZM4.40844 23.2338L10 26.9154V19.2108L4.40844 23.2338ZM36.6667 6.35714H13.3333V29.1105L19.2881 33.0318L24.14 30.498L29.4279 33.0691L36.6667 28.6428V6.35714ZM24.1933 34.2519L3.33333 45.1455V46.6429H46.6667V45.1786L24.1933 34.2519ZM46.6667 26.4554L33.0058 34.8089L46.6667 41.4507V26.4554ZM15.891 34.8063L3.33333 26.5364V41.3639L15.891 34.8063ZM40 19.2108V26.6049L45.5556 23.2074L40 19.2108Z" fill="#0C3165"/>
</svg>
