<svg width="50" height="50" viewBox="0 0 50 50" fill="none" xmlns="http://www.w3.org/2000/svg">
<path d="M34.143 18.1428C33.143 18.1428 32.4287 18.9285 32.4287 19.8571C32.4287 20.7857 33.2144 21.5714 34.143 21.5714C35.143 21.5714 35.8573 20.7857 35.8573 19.8571C35.8573 18.9285 35.0716 18.1428 34.143 18.1428Z" fill="#828F96"/>
<path d="M32.7143 31.5715H30H29.7857V31.3572V29.9286V29.7144H30H30.7143C31.7857 29.7144 32.5714 30.2858 32.8571 31.2858L32.9286 31.5001L32.7143 31.5715ZM32.8571 32.8572C32.5 33.7858 31.7143 34.4286 30.7143 34.4286H30H29.7857V34.2144V32.7858V32.5715H30H32.7143H33L32.8571 32.8572ZM28.7857 29.9286V31.3572V31.5715H28.5714H25.7143H25.5V31.3572V29.9286V29.7144H25.7143H28.5714H28.7857V29.9286ZM28.7857 32.7858V34.2144V34.4286H28.5714H25.7143H25.5V34.2144V32.7858V32.5715H25.7143H28.5714H28.7857V32.7858ZM24.5 29.9286V31.3572V31.5715H24.2857H21.4286H21.2143V31.3572V29.9286V29.7144H21.4286H24.2857H24.5V29.9286ZM24.5 32.7858V34.2144V34.4286H24.2857H21.4286H21.2143V34.2144V32.7858V32.5715H21.4286H24.2857H24.5V32.7858ZM20.2143 29.9286V31.3572V31.5715H20H17.2857H17L17.0714 31.3572C17.3571 30.5001 18.2857 29.7858 19.2143 29.7858H19.9286H20.1429L20.2143 29.9286ZM20.2143 32.7858V34.2144V34.4286H20H19.2857C18.2857 34.4286 17.4286 33.8572 17.1429 32.8572L17.0714 32.6429H17.3571H20.0714H20.2857L20.2143 32.7858ZM30.7143 28.7144H19.3571C17.5 28.7144 16 30.2144 16 32.0715C16 33.9286 17.5 35.4286 19.3571 35.4286H30.7143C32.5714 35.4286 34.0714 33.9286 34.0714 32.0715C34.0714 30.2144 32.5714 28.7144 30.7143 28.7144Z" fill="#828F96"/>
<path d="M18.643 20.2144C17.9287 20.2144 17.4287 20.7858 17.4287 21.4286C17.4287 22.0715 18.0001 22.6429 18.643 22.6429C19.3573 22.6429 19.8573 22.0715 19.8573 21.4286C19.8573 20.7858 19.2859 20.2144 18.643 20.2144Z" fill="#828F96"/>
<path d="M32.5 16.8571L31.9286 16L27.5 19L28.0714 19.8571L32.5 16.8571Z" fill="#828F96"/>
<path d="M18.1429 16L17.5 16.8571L21.9286 19.8571L22.5 19L18.1429 16Z" fill="#828F96"/>
<path d="M25 48.5C11.7857 48.5 1.5 38.1429 1.5 25C1.5 11.8571 11.8571 1.5 25 1.5C38.1429 1.5 48.5 11.8571 48.5 25C48.5 38.1429 38.2143 48.5 25 48.5ZM25 0C11.2143 0 0 11.2143 0 25C0 38.7857 11.2143 50 25 50C38.7857 50 50 38.7857 50 25C50 11.2143 38.7857 0 25 0Z" fill="#0C3165"/>
</svg>
