<svg width="50" height="50" viewBox="0 0 50 50" fill="none" xmlns="http://www.w3.org/2000/svg">
<g clip-path="url(#clip0_1_178)">
<path d="M32.4996 37.6429C32.4996 38.6429 32.1424 39.5 31.4282 40.2143C30.7139 40.9286 29.8567 41.2857 28.8567 41.2857C27.8567 41.2857 26.9282 40.9286 26.2853 40.2143C25.571 39.5 25.2139 38.6429 25.2139 37.6429C25.2139 36.6429 25.571 35.7857 26.2853 35.0714C26.9996 34.3571 27.8567 34 28.8567 34C29.8567 34 30.7853 34.3571 31.4282 35.0714C32.071 35.7857 32.4996 36.6429 32.4996 37.6429Z" fill="#828F96"/>
<path d="M36.929 46.3571C36.929 47.0714 36.6433 47.6429 36.2147 48C35.8576 48.3571 35.1433 48.7143 34.429 48.7143H3.42899C2.7147 48.7143 2.14328 48.4286 1.64328 48C1.14328 47.6429 0.928989 46.9286 0.928989 46.3571V3.64286C0.928989 2.92857 1.2147 2.35714 1.64328 2C2.00042 1.64286 2.7147 1.28571 3.42899 1.28571H24.0004V10.5C24.0004 11.5 24.3576 12.3571 25.0718 13.0714C25.7861 13.7857 26.6433 14.1429 27.6433 14.1429H36.8576L36.929 46.3571ZM25.2861 2.07143L36.1433 12.8571H27.7147C27.0004 12.8571 26.429 12.5714 25.929 12.1429C25.5718 11.7857 25.2147 11.0714 25.2147 10.5V2.07143H25.2861ZM38.0004 12.9286L25.1433 0.214286C25.0004 0.0714286 24.8576 0 24.7147 0H24.6433H3.42899C2.42899 0 1.50042 0.357143 0.857561 1.07143C0.143276 1.78571 -0.213867 2.64286 -0.213867 3.64286V46.3571C-0.213867 47.3571 0.143276 48.2143 0.857561 48.9286C1.57185 49.6429 2.42899 50 3.42899 50H34.5004C35.5004 50 36.429 49.6429 37.0718 48.9286C37.7861 48.2143 38.1433 47.3571 38.1433 46.3571V13.4286V13.3571C38.2147 13.2143 38.1433 13.0714 38.0004 12.9286Z" fill="#0C3165"/>
<path d="M25.5718 31.2858C25.5718 31.0001 25.2861 30.7144 25.0004 30.7144H6.85756C6.57185 30.7144 6.28613 31.0001 6.28613 31.2858C6.28613 31.5715 6.57185 31.8572 6.85756 31.8572H25.0004C25.2861 31.9286 25.5718 31.6429 25.5718 31.2858Z" fill="#0C3165"/>
<path d="M6.14258 24.643C6.14258 24.9287 6.42829 25.2144 6.71401 25.2144H29.7854C30.0711 25.2144 30.3569 24.9287 30.3569 24.643C30.3569 24.3573 30.0711 24.0716 29.7854 24.0716H6.85686C6.42829 24.0001 6.14258 24.2859 6.14258 24.643Z" fill="#0C3165"/>
<path d="M6.14258 18.357C6.14258 18.6428 6.42829 18.9285 6.71401 18.9285H27.9997C28.2854 18.9285 28.5712 18.6428 28.5712 18.357C28.5712 18.0713 28.2854 17.7856 27.9997 17.7856H6.85686C6.42829 17.7142 6.14258 18.0713 6.14258 18.357Z" fill="#0C3165"/>
<path d="M32.5 37.6429C32.5 38.6429 32.1429 39.5 31.4286 40.2143C30.7143 40.9286 29.8572 41.2857 28.8572 41.2857C27.8572 41.2857 26.9286 40.9286 26.2857 40.2143C25.5714 39.5 25.2143 38.6429 25.2143 37.6429C25.2143 36.6429 25.5714 35.7857 26.2857 35.0715C27 34.3572 27.8572 34 28.8572 34C29.8572 34 30.7857 34.3572 31.4286 35.0715C32.0714 35.7857 32.5 36.6429 32.5 37.6429ZM25.5 34.2143C24.6429 35.0715 24 36.2857 24 37.6429C24 39 24.5714 40.2143 25.5 41.0715C26.3572 41.9286 27.5714 42.4286 28.9286 42.4286C30.2857 42.4286 31.5 41.8572 32.3572 41.0715C33.2143 40.2143 33.8572 39 33.8572 37.6429C33.8572 36.2857 33.2857 35.0715 32.3572 34.2143C31.5 33.3572 30.2857 32.8572 28.9286 32.8572C27.5 32.8572 26.3572 33.3572 25.5 34.2143Z" fill="#0C3165"/>
</g>
<defs>
<clipPath id="clip0_1_178">
<rect width="50" height="50" fill="white"/>
</clipPath>
</defs>
</svg>
