<svg width="50" height="50" viewBox="0 0 50 50" fill="none" xmlns="http://www.w3.org/2000/svg">
<path fill-rule="evenodd" clip-rule="evenodd" d="M41.9995 13.2857C42.2853 13.6429 42.4995 14.1429 42.4995 14.7143C42.4995 15.2857 42.2853 15.7857 41.9995 16.1429C41.7138 16.4286 41.3567 16.6429 40.9995 16.6429C40.6424 16.6429 40.2853 16.4286 39.9995 16.1429C39.8567 15.9286 39.7138 15.6429 39.571 15.2857C39.4995 15.0714 39.4995 14.9286 39.4995 14.7143C39.4995 14.1429 39.6424 13.6429 39.9281 13.2857C40.2138 13 40.571 12.7857 40.9281 12.7857C41.3567 12.7143 41.7138 12.9286 41.9995 13.2857ZM25.071 16.7143C25.3567 17.0714 25.4995 17.5714 25.4995 18.1429C25.4995 18.7143 25.3567 19.2143 25.071 19.5714C24.7853 19.9286 24.4281 20.0714 24.071 20.0714C23.7138 20.0714 23.3567 19.8571 23.071 19.5714C22.7853 19.2143 22.571 18.7143 22.571 18.1429C22.571 17.5714 22.7138 17.0714 23.071 16.7143C23.3567 16.4286 23.7138 16.2143 24.071 16.2143C24.4281 16.2143 24.7853 16.3571 25.071 16.7143ZM12.7853 37.7143C12.9281 38.1429 12.8567 38.7143 12.6424 39.2143C12.4281 39.7143 12.071 40.1429 11.6424 40.3571C11.2853 40.5714 10.8567 40.5714 10.4995 40.4286C10.1424 40.2857 9.92812 39.9286 9.78526 39.5714C9.6424 39.1429 9.71383 38.5714 9.92812 38.0714C10.1424 37.5714 10.4995 37.1429 10.9281 36.9286C11.2853 36.7143 11.7138 36.7143 12.071 36.8571C12.2138 36.9286 12.2853 37 12.4281 37.0714C12.571 37.2143 12.7138 37.4286 12.7853 37.7143Z" fill="white"/>
<path fill-rule="evenodd" clip-rule="evenodd" d="M16.2857 3.64285L3.57143 2.07142C3.28571 2 2.92857 2.07142 2.64286 2.14285C2.35714 2.21428 2.07143 2.35714 1.85714 2.57142C1.57143 2.85714 1.42857 3.07142 1.28571 3.35714C1.14286 3.64285 1.07143 3.92857 1.07143 4.28571V45.7143C1.07143 46.0714 1.14286 46.3571 1.28571 46.6429C1.42857 46.9286 1.57143 47.1429 1.85714 47.3571C2.07143 47.5714 2.35714 47.7143 2.64286 47.7857H2.71429C3 47.8571 3.28571 47.8571 3.64286 47.8571L16.3571 46.2143V33L13.5714 36.7143C13.7143 36.9286 13.8571 37.2143 13.9286 37.4286C14.1429 38.0714 14.0714 38.8571 13.7857 39.6429C13.5 40.3571 12.9286 41 12.2857 41.2857C11.6429 41.6429 10.9286 41.7143 10.2857 41.4286C10.2143 41.4286 10.2143 41.4286 10.1429 41.3571C9.5 41.0714 9.07143 40.5 8.85714 39.7857C8.64286 39.1429 8.71429 38.3571 9 37.5714C9.28571 36.7857 9.85714 36.2143 10.5 35.9286C11.1429 35.5714 11.8571 35.5 12.5714 35.7857C12.6429 35.7857 12.7143 35.8571 12.7857 35.8571L16.4286 31.0714V3.64285H16.2857ZM17.4286 29.2143L22.2857 20.2857L22.2143 20.2143C21.7857 19.6429 21.5 18.9286 21.5 18.1429C21.5 17.3571 21.7857 16.5714 22.2143 16.0714C22.7143 15.5 23.3571 15.1429 24.0714 15.1429C24.7857 15.1429 25.4286 15.5 25.9286 16.0714C26.2143 16.4286 26.4286 16.9286 26.5714 17.5L32.6429 17.1429V1.78571L17.4286 3.64285V29.2143ZM23.1429 20.9286C23.4286 21.0714 23.7143 21.1429 24.0714 21.1429C24.7857 21.1429 25.4286 20.7857 25.9286 20.2143C26.2857 19.7857 26.5714 19.1429 26.6429 18.5L32.6429 18.1429V48.2143L23.0714 46.9286L17.5 46.2143V31.5L23.1429 20.9286ZM33.7143 16.7857L38.5 15C38.5 14.8571 38.5 14.7857 38.5 14.6429C38.5 13.8571 38.7857 13.0714 39.2143 12.5714C39.6429 12 40.3571 11.6429 41.0714 11.6429C41.7857 11.6429 42.4286 12 42.9286 12.5714C43.3571 13.1429 43.6429 13.8571 43.6429 14.6429C43.6429 15.4286 43.3571 16.2143 42.9286 16.7143C42.4286 17.2857 41.7857 17.6429 41.0714 17.6429C40.3571 17.6429 39.7143 17.2857 39.2143 16.7143C39.0714 16.5 38.9286 16.2857 38.7857 16.0714L33.7143 17.9286V48.2143L47 46.4286C47.5714 46.3571 48 46.0714 48.3571 45.7143C48.7143 45.3571 48.9286 44.7857 48.9286 44.2857V5.57142C48.9286 5 48.7143 4.5 48.3571 4.07142C48 3.71428 47.5 3.42857 47 3.35714L33.7143 1.78571V16.7857ZM42 13.2857C42.2857 13.6429 42.5 14.1429 42.5 14.7143C42.5 15.2857 42.2857 15.7857 42 16.1429C41.7143 16.4286 41.3571 16.6429 41 16.6429C40.6429 16.6429 40.2857 16.4286 40 16.1429C39.8571 15.9286 39.7143 15.6429 39.5714 15.2857C39.5 15.0714 39.5 14.9286 39.5 14.7143C39.5 14.1429 39.6429 13.6429 39.9286 13.2857C40.2143 13 40.5714 12.7857 40.9286 12.7857C41.3571 12.7143 41.7143 12.9286 42 13.2857ZM25.0714 16.7143C25.3571 17.0714 25.5 17.5714 25.5 18.1429C25.5 18.7143 25.3571 19.2143 25.0714 19.5714C24.7857 19.9286 24.4286 20.0714 24.0714 20.0714C23.7143 20.0714 23.3571 19.8571 23.0714 19.5714C22.7857 19.2143 22.5714 18.7143 22.5714 18.1429C22.5714 17.5714 22.7143 17.0714 23.0714 16.7143C23.3571 16.4286 23.7143 16.2143 24.0714 16.2143C24.4286 16.2143 24.7857 16.3571 25.0714 16.7143ZM12.7857 37.7143C12.9286 38.1429 12.8571 38.7143 12.6429 39.2143C12.4286 39.7143 12.0714 40.1429 11.6429 40.3571C11.2857 40.5714 10.8571 40.5714 10.5 40.4286C10.1429 40.2857 9.92857 39.9286 9.78571 39.5714C9.64286 39.1429 9.71429 38.5714 9.92857 38.0714C10.1429 37.5714 10.5 37.1429 10.9286 36.9286C11.2857 36.7143 11.7143 36.7143 12.0714 36.8571C12.2143 36.9286 12.2857 37 12.4286 37.0714C12.5714 37.2143 12.7143 37.4286 12.7857 37.7143ZM20.8571 2.14285L33.0714 0.642853H33.1429C33.2143 0.642853 33.2857 0.642853 33.2857 0.642853C33.3571 0.642853 33.4286 0.642853 33.5 0.642853L47.0714 2.35714C47.9286 2.42857 48.6429 2.85714 49.1429 3.42857C49.7143 4 50 4.78571 50 5.57142V44.2857C50 45.1429 49.7143 45.8571 49.2143 46.5C48.7143 47.0714 48 47.5 47.1429 47.5714L33.5714 49.3571C33.5 49.3571 33.3571 49.3571 33.2857 49.3571C33.2143 49.3571 33.1429 49.4286 33.0714 49.3571L17.1429 47.2857C17.0714 47.2857 16.9286 47.2857 16.8571 47.2857C16.7857 47.2857 16.6429 47.2857 16.5714 47.2857L3.71429 49C3.21429 49.0714 2.78571 49 2.35714 48.9286C2.35714 48.9286 2.35714 48.9286 2.28571 48.9286C1.85714 48.7857 1.42857 48.5714 1.07143 48.2143C0.714286 47.8571 0.428571 47.5 0.214286 47.0714C0.0714286 46.6429 0 46.2143 0 45.7143V4.28571C0 3.78571 0.0714286 3.35714 0.285714 2.92857C0.5 2.5 0.785714 2.14285 1.14286 1.78571C1.5 1.5 1.92857 1.21428 2.35714 1.07142C2.78571 0.928567 3.28571 0.928567 3.71429 0.928567L16.5714 2.5C16.6429 2.5 16.7857 2.5 16.8571 2.5C16.9286 2.5 17.0714 2.5 17.1429 2.5L20.8571 2.14285Z" fill="#3C6EB2"/>
</svg>
