<svg width="55" height="57" viewBox="0 0 55 57" fill="none" xmlns="http://www.w3.org/2000/svg">
<path d="M53.8355 35.3779L53.8354 35.378C50.9355 46.1341 42.6132 53.9628 31.963 55.9782L32.056 56.4695L31.963 55.9782C29.8506 56.378 28.3341 56.5444 27.2309 56.49C26.135 56.4359 25.5122 56.1675 25.1105 55.7589L25.1104 55.7587C24.6216 55.2618 24.4082 54.76 24.3986 54.2861C24.389 53.8105 24.5831 53.287 25.0558 52.7458L25.0558 52.7458C25.5596 52.1689 26.1716 51.8789 28.0504 51.5837C33.7462 50.6893 38.126 48.4202 42.2811 44.2187L42.2811 44.2187C43.4985 42.9876 44.3329 42.0634 45.039 41.0745C45.7462 40.0842 46.3141 39.0441 47.0128 37.5906C49.1851 33.0725 50.0469 28.9378 49.7485 24.3946L49.25 24.4274L49.7485 24.3946C48.9549 12.3185 40.4328 2.81504 29.1232 0.635278C31.3485 0.808195 33.5258 1.1348 34.818 1.54804C38.276 2.65414 42.3585 4.87138 44.7634 6.93958C48.9705 10.5577 52.4144 16.09 53.8717 21.5787L54.355 21.4504L53.8718 21.5787C54.2925 23.163 54.5069 25.797 54.4998 28.4728C54.4928 31.1484 54.2647 33.7862 53.8355 35.3779ZM8.81502 46.5241C8.4288 46.1744 8.04543 45.8108 7.66968 45.4379C5.88103 43.6625 4.3055 41.7147 3.43802 40.1086C1.27838 36.1095 0.501082 32.9474 0.500006 28.1194C0.499461 26.2682 0.53427 25.1267 0.678275 24.0986C0.82149 23.0762 1.07506 22.1495 1.53198 20.7312C3.96648 13.1765 9.55173 7.50248 16.9848 5.02446C18.3752 4.56107 19.2775 4.30571 20.2754 4.16285C21.2794 4.01914 22.3974 3.98677 24.2226 3.99121C28.9704 4.00324 32.1504 4.8083 35.93 6.94073C37.217 7.66698 37.9597 8.26186 38.3178 8.79848C38.4894 9.05556 38.5666 9.29072 38.5794 9.51987C38.5923 9.75214 38.541 10.013 38.4027 10.3216L38.4027 10.3216C38.1104 10.9743 37.705 11.3317 37.2525 11.4721C36.791 11.6153 36.188 11.5614 35.4542 11.2016L35.4541 11.2015C30.7106 8.87616 24.6247 8.09136 20.0927 9.25209C13.4964 10.9412 8.04177 15.355 5.26232 21.2753C3.52326 24.9794 2.95963 27.4162 2.95963 31.2688C2.95963 35.1139 3.52268 37.557 5.24846 41.2329C6.09274 43.0317 7.35693 44.88 8.81502 46.5241Z" stroke="white"/>
<path d="M18.4746 39.9145C18.4967 40.114 18.6789 42.0422 18.2342 42.6266C17.4671 43.6393 15.3104 43.5289 14.5487 43.5963C14.3991 43.6081 14.4015 43.7929 14.4015 43.7929C14.3763 43.9751 14.7805 44.0881 14.9622 44.1061C15.6657 44.1765 17.326 44.2979 18.3388 44.0074C19.6456 43.6328 20.3386 42.8528 20.3386 42.8528C20.3386 42.8528 19.3307 40.3847 19.2962 40.2669C19.2617 40.149 18.7108 39.253 18.7108 39.253L18.4746 39.9145V39.9145Z" fill="white"/>
<path d="M32.1802 40.6076C32.1802 40.6076 31.5532 40.8504 30.6787 41.374C29.8041 41.8975 28.708 42.8692 28.708 42.8692C28.708 42.8692 29.3544 41.9635 29.5438 41.3886C29.7317 40.8109 29.3165 39.9111 28.9587 39.4399C28.5918 38.9591 28.2642 38.7981 26.7751 39.2892L30.6306 36.769C29.8083 38.428 30.6215 40.3977 32.1802 40.6076V40.6076ZM39.3855 25.242C38.746 25.7341 37.9971 25.9914 37.1946 25.9818C36.8446 25.9754 36.6038 25.6228 36.7183 25.2923C36.7961 25.0723 37.0119 24.9366 37.2468 24.9499C38.5793 25.026 39.3221 24.0422 39.6586 23.4123C40.5171 21.8031 40.3271 19.939 39.3412 18.4377C39.8835 18.7577 40.3821 19.1699 40.7424 19.6844C41.6221 20.9305 41.267 22.5022 40.5906 23.7753C40.2689 24.3856 39.8579 24.8799 39.3855 25.242V25.242Z" fill="white"/>
<path d="M43.1363 24.823C42.8347 24.9972 42.4708 25.1216 42.0511 25.1106C41.6198 25.099 41.2895 24.9396 40.9433 24.7075C40.6588 24.518 40.3793 24.4596 40.0559 24.6799C39.8297 24.8365 39.6781 25.1028 39.4214 25.2064C39.4145 24.4655 39.662 23.7268 40.1166 23.1403C40.3258 22.8706 40.5927 22.6234 40.922 22.5487C41.0656 22.7265 41.0392 22.9838 41.0702 23.2117C41.1276 23.6142 41.4064 23.9746 41.7799 24.1314C42.0348 24.2375 42.4291 24.2817 42.6736 24.1182C42.8347 24.0103 42.8698 23.8001 43.0265 23.691C43.5166 23.3596 44.0773 24.0339 43.6423 24.4415C43.5028 24.5741 43.3346 24.7085 43.1363 24.823V24.823ZM32.2413 17.3045C32.0519 17.4474 31.8323 17.5444 31.6229 17.4269C31.3522 17.2741 31.2991 16.9175 31.5016 16.6814C32.0608 16.0309 32.8742 15.6208 33.7165 15.4994C34.4529 15.3946 35.0486 15.5943 35.4457 15.7338C35.8427 15.8732 36.3208 16.3271 36.3208 16.3271C35.4276 16.1539 34.6204 15.5362 32.2413 17.3045V17.3045ZM29.2543 18.3103C28.6365 18.6335 29.2375 18.32 29.232 18.3232C28.2767 18.8747 26.9441 19.2047 26.1616 18.2041C24.7402 16.3807 28.1123 15.4616 29.2703 14.9904C29.2703 14.9904 27.9225 14.6104 26.7702 15.1751C26.2341 15.44 25.7087 15.7619 25.2834 16.1862C24.8158 16.6536 24.7768 17.231 24.3934 17.7279C24.1022 18.1008 23.6354 18.2921 23.1767 18.4006C22.7535 18.4997 21.2204 18.5469 21.6384 19.3483C21.7542 19.5682 22.0142 19.6639 22.2414 19.5736C23.1598 19.2035 24.5522 18.9061 25.4556 19.4645C25.8711 19.7199 26.1782 20.1422 26.2947 20.6149C26.3534 20.8454 26.4191 21.1464 26.6565 21.1769C26.8386 21.2021 26.9942 21.0266 27.0442 20.8487C27.0943 20.6709 27.0798 20.4782 27.1298 20.3003C27.2841 19.742 27.7533 19.8063 28.2105 19.7211C28.7393 19.6243 29.2465 19.432 29.7129 19.1627C29.7241 19.1563 28.8478 19.5542 29.7437 19.145C30.6351 18.7346 29.8693 17.9888 29.2543 18.3103V18.3103ZM15.3025 25.1513C14.597 25.0001 13.4346 23.4963 14.2815 21.8864C14.2815 21.8864 13.5698 22.3309 13.2379 23.1556C12.955 23.8589 13.2564 24.6196 13.8066 25.2888C13.947 25.461 13.899 25.7196 13.6998 25.8197C12.9862 26.1833 12.3688 26.7073 11.932 27.3245C11.767 27.5613 11.8533 27.8913 12.1099 28.0262C12.2147 28.0801 12.3356 28.0938 12.4499 28.0649C12.5642 28.036 12.6639 27.9663 12.7304 27.869C13.2206 27.1764 14.0974 26.4504 14.9896 26.196C15.8945 25.938 16.5825 25.8461 17.8234 26.5634C18.0344 26.6837 18.3005 26.6157 18.4059 26.3984C18.4868 26.2288 18.4427 26.0234 18.2997 25.9049C16.9241 24.7477 16.2539 25.3543 15.3025 25.1513ZM19.9356 29.1834C19.8898 29.1386 19.8355 29.1033 19.7759 29.0797C19.7163 29.0561 19.6526 29.0446 19.5885 29.0459C19.5244 29.0472 19.4612 29.0613 19.4027 29.0873C19.3441 29.1132 19.2912 29.1506 19.2472 29.1973C18.693 29.7854 17.69 30.2863 17.0055 30.1005C15.6549 29.0965 15.0794 29.1122 14.2412 29.2796C13.9071 29.3459 13.7665 29.7473 13.9621 30.0217C14.074 30.1768 14.2636 30.2535 14.4502 30.2091C15.0328 30.0701 15.9182 30.449 16.5686 30.9821C17.1596 31.4639 17.6568 32.2606 17.4615 33.1479C17.4117 33.3778 17.5096 33.6117 17.7248 33.7072L17.7352 33.7123C18.0114 33.8359 18.3283 33.6753 18.3958 33.3794C18.4664 33.063 18.5099 32.6804 18.4373 32.3611C18.3578 32.0234 18.1843 31.781 18.3006 31.4085C18.4288 30.9919 18.722 30.8933 19.0543 30.7015C19.3951 30.5047 19.69 30.1706 19.9451 29.8706C20.1226 29.675 20.1284 29.3626 19.9356 29.1834ZM13.5588 37.9149C13.4639 37.9697 13.3701 38.0201 13.2675 38.0682C11.9098 38.7031 10.6941 38.1648 9.79832 37.3228C8.90251 36.4807 8.52207 35.2219 8.52207 35.2219C10.6547 38.0126 12.3997 37.4036 12.858 37.1911C13.7238 36.788 14.3051 35.9758 14.2057 35.307C14.0498 34.25 12.5182 34.0096 11.7055 33.7824C11.1676 33.6312 10.7017 33.1144 10.5217 32.5964C10.4277 32.3304 10.3984 32.0345 10.508 31.7664C10.6165 31.5027 11.029 31.082 11.2103 31.5508C11.2682 31.6962 11.2461 31.8579 11.264 32.0114C11.3845 33.1038 13.2107 33.1256 13.9547 33.5564C14.5606 33.9029 15.0591 34.4567 15.1623 35.1643C15.3124 36.1725 14.6481 37.286 13.5588 37.9149V37.9149Z" fill="white"/>
<path d="M13.1308 37.8643C13.3732 37.7616 13.5824 37.5887 13.7282 37.3704C13.8689 37.1626 13.9578 36.9101 14.1632 36.7692C14.2633 36.704 14.4273 36.6912 14.4686 36.8015C14.4839 36.841 14.7601 36.771 14.7406 36.8082C14.3848 37.4755 13.1754 38.6318 15.5874 40.5648C15.7801 40.7179 15.8477 40.9768 15.729 41.1906C15.5909 41.4416 15.2604 41.5207 15.0293 41.3525C14.4269 40.9219 13.9259 40.3509 13.5634 39.7037C13.2106 39.0732 12.9588 38.4887 12.2383 38.2083C12.1629 38.181 12.0719 38.133 12.0744 38.0534C12.0757 38.0042 12.1124 37.9644 12.1478 37.9291C12.2952 37.7844 12.4521 37.6305 12.649 37.5652C12.7369 37.5368 13.8901 37.5153 13.8888 37.4937L13.1308 37.8643ZM40.3759 27.5118C39.7574 27.7758 39.1867 28.1612 38.7586 28.6839C38.3966 29.1276 38.255 29.6822 37.6538 29.8729C37.2951 29.9869 36.8953 29.9459 36.547 29.8006C35.8136 29.4979 35.5389 28.8931 35.3373 28.1827C35.139 27.4779 34.711 26.7754 34.1007 26.3569C33.9394 26.2452 33.7375 26.1793 33.546 26.2153C33.3518 26.253 33.1809 26.415 33.1682 26.6122C33.1571 26.8123 33.3046 26.9841 33.4365 27.1351C33.847 27.5945 34.3124 28.0781 34.4511 28.6795C34.5836 29.2509 34.6313 29.8044 34.4983 30.3802C34.2475 31.4746 33.4754 32.3561 32.5249 32.6256C31.8245 32.8251 31.0835 32.6832 30.3737 32.2215C29.9613 31.7781 29.4547 31.1843 28.7787 31.4778C28.6422 31.538 28.5138 31.6381 28.4628 31.7756C28.4134 31.9158 28.4462 32.0757 28.5203 32.2042C28.7058 32.5254 29.1517 32.5882 29.3898 32.8715C30.1237 33.7363 30.1199 35.2133 29.4547 36.3123C28.9408 37.1639 27.0067 38.5934 24.2539 38.1084C24.137 38.0865 24.0628 37.958 23.9471 37.9317C23.871 37.9161 23.7907 37.9252 23.72 37.9512C23.4128 38.0577 23.2767 38.4864 23.4631 38.7512C23.6322 38.9924 23.9546 39.067 24.2417 39.1321C24.9889 39.304 24.8758 39.6113 24.9323 39.9027C24.9483 39.9754 24.9442 40.0523 24.9757 40.1197C25.0622 40.3082 25.302 40.0915 25.4727 39.9743C25.6434 39.8571 25.749 39.6658 25.8931 39.5156C26.0755 39.3284 27.2838 39.1186 27.5035 39.0476C28.1415 38.8431 28.3692 38.7861 28.858 38.5039C29.4697 38.1508 30.1714 38.1664 30.3764 37.4895C30.6697 36.5269 30.94 35.8533 31.3929 35.3348C31.6174 35.0786 31.9251 34.8376 32.2645 34.8837C32.5063 34.9154 32.7059 35.0869 32.8806 35.2542C33.2394 35.5982 33.5723 35.9683 33.9756 36.2606C34.3773 36.55 34.8679 36.7546 35.3605 36.7048C35.5156 36.6897 35.6762 36.6454 35.7926 36.5373C35.9089 36.4292 35.9601 36.2469 35.8855 36.1113C35.8351 36.0175 35.7392 35.9611 35.6454 35.9147C35.2753 35.7187 34.8818 35.5661 34.5276 35.346C34.1734 35.126 33.8472 34.819 33.7122 34.424C33.4617 33.6935 34.115 33.0705 34.5645 32.5913C34.9949 32.1305 35.3446 31.5301 35.9238 31.2367C36.287 31.0531 37.2698 31.0331 37.6512 31.1778C37.7282 31.2079 37.788 31.2664 37.8411 31.3326C38.2764 31.8671 38.1498 32.6477 37.9876 33.3149C37.9585 33.4322 37.9492 33.5903 38.0606 33.6414C38.1007 33.6592 38.1439 33.6566 38.1839 33.6484C38.5461 33.592 38.8343 33.2915 38.9744 32.9537C39.2856 32.2154 39.0639 31.3864 39.2489 30.6167C39.4033 29.9875 39.7724 29.4207 40.2003 28.9427C41.7304 27.2326 42.686 28.662 43.5045 29.2992C44.323 29.9364 44.4908 29.0724 44.3641 28.8402C43.7564 27.7424 42.2353 26.7139 40.3759 27.5118V27.5118Z" fill="white"/>
<path d="M25.2399 42.1307C24.9425 42.2801 24.5801 42.0909 24.5442 41.7578C24.4862 41.2252 24.5946 40.6003 24.8628 40.0135C25.2717 39.122 25.9128 38.6327 26.7227 38.4295L27.2748 39.0566C26.7509 39.1878 26.0288 39.7946 25.7439 40.4172C25.5383 40.8673 25.4739 41.3104 25.5033 41.6323C25.523 41.8407 25.4251 42.0387 25.2399 42.1307V42.1307Z" fill="white"/>
<path d="M35.8953 18.8148C35.6375 18.4908 35.1707 18.3208 34.8067 18.5161C34.6275 18.6121 34.4852 18.8171 34.5361 19.0149C34.5573 19.1032 34.6168 19.1806 34.6648 19.2571C35.0225 19.8252 34.8802 20.6559 34.3516 21.0691C33.7541 21.537 33.0415 21.4121 32.3564 21.3608C31.7033 21.3133 30.9926 21.4369 30.3621 21.5961C28.6843 22.0248 27.5978 23.0133 27.3395 24.7526C27.244 25.3998 27.1894 26.0793 26.8531 26.6385C26.325 27.5169 24.7032 28.4942 23.733 27.9297C22.462 27.1925 20.482 23.8146 22.7379 23.0261C23.4357 22.7834 24.2165 23.0587 24.4951 23.4379C24.6713 23.6788 24.6411 23.9941 24.5372 24.285C24.4993 24.3928 24.5011 24.5106 24.5421 24.6172C24.5832 24.7239 24.661 24.8124 24.7614 24.8668C25.0229 25.0101 25.352 24.8834 25.4523 24.6058C25.7411 23.7836 25.5321 23.2153 25.2742 22.8652C24.4543 21.7484 22.7223 21.8509 21.6376 22.4362C21.3981 22.5633 21.0837 22.6443 20.8669 22.4752C20.773 22.4028 20.7189 22.2963 20.6525 22.2005C20.1854 21.5206 19.0097 21.1678 18.2271 21.1281C17.9386 21.1121 17.7081 21.3644 17.7282 21.6507C17.7473 21.8967 17.9505 22.081 18.197 22.0951C18.9453 22.1397 19.5748 22.469 20.0707 23.0764C20.6387 23.7763 20.9258 24.6607 21.0066 25.5488C21.0478 25.9943 21.0462 26.4495 20.995 26.8962C20.9531 27.2816 20.7758 27.626 20.8344 28.0242C20.8414 28.0685 20.85 28.1157 20.8821 28.1456C20.942 28.2041 21.0399 28.1737 21.1141 28.1345C21.3256 28.0236 21.5065 27.8596 21.6409 27.6666C21.7718 28.1384 22.2761 28.3798 22.7087 28.6067C23.1414 28.8336 23.6035 29.2147 23.5417 29.701C23.5386 29.7215 23.5327 29.7435 23.5312 29.7667C23.1148 30.3162 22.7663 30.9382 22.6045 31.6126C22.3277 32.7779 22.1916 33.7613 21.3434 34.698C20.5942 35.529 19.5482 36.0845 18.4436 36.2418C18.2301 36.272 18.0074 36.2926 17.8235 36.4062C17.6396 36.5198 17.5171 36.7656 17.6195 36.9559C17.6716 37.0525 17.769 37.1117 17.8609 37.1741C18.8921 37.8635 18.3819 38.9923 18.4942 40.0447C18.5965 41.0283 18.9128 41.989 19.4079 42.8464C19.9481 43.7821 20.6628 44.2781 22.5088 44.7988C23.3435 45.0319 24.2144 44.9536 24.9006 44.8069C25.116 44.7607 25.087 44.446 24.8654 44.4362C23.2341 44.3651 22.6584 43.8 21.8954 43.317C20.0613 42.1527 19.5462 39.0611 20.4408 36.8242C20.7877 35.961 21.7097 35.4808 22.6265 35.3015C23.6106 35.1095 24.4449 35.4322 25.3862 35.6373C25.6425 35.6941 25.9527 35.7347 26.1291 35.5435C26.2907 35.372 26.2546 35.0838 26.1162 34.8956C25.9777 34.7074 25.76 34.5947 25.5527 34.4872C25.3246 34.3694 25.0964 34.2516 24.8655 34.1355C24.5644 33.9816 24.2513 33.8198 24.0333 33.5583C23.7952 33.275 23.444 32.0216 25.7071 29.8138C26.0907 29.4397 26.5778 29.2255 27.1044 29.0927C27.8133 28.9144 28.507 29.1097 29.2197 29.1637C29.4186 29.1792 29.6347 29.1923 29.811 29.0979C30.0337 28.9805 30.1509 28.6931 30.0714 28.4523C29.9619 28.1207 29.5853 27.9844 29.2857 27.8073C28.2942 27.2253 28.1992 25.7384 28.6033 24.7677C28.9675 23.9021 29.7145 23.2287 30.5701 22.8464C31.8716 22.2626 33.5578 22.3839 34.5333 23.422C34.754 23.6559 35.0338 23.9598 35.3312 23.8365C35.6627 23.701 35.5904 23.1953 35.3807 22.903C35.171 22.6107 34.8688 22.3197 34.9197 21.9626C34.9445 21.7993 35.0415 21.6576 35.1389 21.5232C35.4208 21.1407 35.7356 20.7765 35.9365 20.344C36.139 19.9142 36.2131 19.3911 36.0012 18.966C35.971 18.9201 35.9359 18.8659 35.8953 18.8148V18.8148Z" fill="white"/>
<path d="M21.1097 28.1333C21.3212 28.0223 21.5021 27.8583 21.6365 27.6653C21.7674 28.1371 22.2717 28.3785 22.7043 28.6054C23.0207 28.7728 23.519 29.107 23.5462 29.7281C23.5462 29.7281 23.7995 29.3026 24.304 28.7767C24.8085 28.2508 25.3781 27.8698 25.3781 27.8698C24.8963 28.0288 24.1192 28.1535 23.7286 27.9284C22.4576 27.1912 20.4776 23.8134 22.7335 23.0249C23.4313 22.7821 24.2122 23.0575 24.4907 23.4367C24.6669 23.6775 24.6367 23.9929 24.5328 24.2837C24.4949 24.3915 24.4967 24.5093 24.5378 24.616C24.5788 24.7226 24.6566 24.8111 24.757 24.8656C25.0185 25.0088 25.3476 24.8822 25.4479 24.6045C25.7367 23.7823 25.5277 23.214 25.2698 22.864C24.4499 21.7471 22.7179 21.8496 21.6332 22.4349C21.3937 22.562 21.0793 22.643 20.8625 22.474C20.7686 22.4016 20.7145 22.295 20.6481 22.1993C20.181 21.5193 19.0053 21.1665 18.2227 21.1268C17.9342 21.1109 17.7037 21.3631 17.7238 21.6495C17.7429 21.8954 17.9461 22.0797 18.1926 22.0938C18.9409 22.1385 19.5704 22.4677 20.0663 23.0751C20.6343 23.7751 20.9214 24.6595 21.0022 25.5476C21.0434 25.993 21.0418 26.4482 20.9906 26.8949C20.9487 27.2803 20.7714 27.6247 20.83 28.0229C20.837 28.0673 20.8456 28.1144 20.8778 28.1443C20.9376 28.2028 21.0355 28.1724 21.1097 28.1333V28.1333Z" fill="white"/>
</svg>
