<?xml version="1.0" encoding="utf-8"?><svg viewBox="0 0 55 57" xmlns="http://www.w3.org/2000/svg" xmlns:xlink="http://www.w3.org/1999/xlink"><style>:root>svg{display:none}:root>svg:target{display:block}</style><svg fill="none" viewBox="0 0 52 32" id="icon-battery" xmlns="http://www.w3.org/2000/svg"><path d="M41 1H6a5 5 0 00-5 5v20a5 5 0 005 5h35a5 5 0 005-5V6a5 5 0 00-5-5z" stroke="#0C3165" stroke-width="2" stroke-linecap="round" stroke-linejoin="round"/><path d="M47 12h2.348v-2H47v2zm2.348 0c.25 0 .45.077.565.164l1.206-1.595c-.505-.383-1.144-.569-1.771-.569v2zm.565.164c.054.04.076.074.084.088.007.012.003.01.003-.002h2c0-.701-.37-1.295-.88-1.681l-1.207 1.595zm.087.086v7.5h2v-7.5h-2zm0 7.5c0-.013.004-.015-.003-.002a.303.303 0 01-.084.088l1.206 1.595c.511-.386.881-.98.881-1.681h-2zm-.087.086a.962.962 0 01-.565.164v2c.627 0 1.266-.186 1.771-.569l-1.206-1.595zm-.565.164H47v2h2.348v-2z" fill="#0C3165"/><path d="M13 11v10m10.133-10v10m10.134-10v10" stroke="#D63028" stroke-width="5" stroke-linecap="round" stroke-linejoin="round"/></svg><svg fill="none" viewBox="0 0 52 54" id="icon-bell" xmlns="http://www.w3.org/2000/svg"><path d="M26 53c-2.456 0-4.295-1.36-4.837-3h9.674c-.542 1.64-2.38 3-4.837 3zM21.85 7.622l.817-.152V3.729C22.667 2.355 24.008 1 26 1c1.991 0 3.333 1.354 3.333 2.73v3.739l.817.153c8.714 1.624 15.072 8.26 15.072 16v15.377l.348.3L51 43.971V45H1v-1.028l5.43-4.674.348-.299V23.622c0-7.74 6.358-14.376 15.072-16z" stroke="#0C3165" stroke-width="2"/><circle cx="26" cy="35" r="3" fill="#D63028"/><path d="M26 17v10" stroke="#D63028" stroke-width="5" stroke-linecap="round" stroke-linejoin="round"/></svg><svg fill="none" viewBox="0 0 51 51" id="icon-geo" xmlns="http://www.w3.org/2000/svg"><path d="M42.154 21.42c0 7.224-5.13 14.367-10.501 19.826-2.659 2.702-5.32 4.936-7.32 6.495a70.054 70.054 0 01-2.756 2.046 70.069 70.069 0 01-2.756-2.046c-2-1.559-4.661-3.793-7.32-6.495C6.131 35.787 1 28.644 1 21.42A20.341 20.341 0 017.024 6.983 20.657 20.657 0 0121.577 1c5.46 0 10.694 2.153 14.553 5.983a20.341 20.341 0 016.024 14.437z" stroke="#0C3165" stroke-width="2" stroke-linecap="round" stroke-linejoin="round"/><path d="M21.577 26.48a4.904 4.904 0 100-9.807 4.904 4.904 0 000 9.808z" fill="#828F96"/></svg><svg fill="none" viewBox="0 0 50 50" id="icon-letter" xmlns="http://www.w3.org/2000/svg"><path d="M23.446 29.169l.67-.35.68.33 4.55 2.212 5.821-3.56V7.858H14.834v20.445l4.542 2.992 4.07-2.125z" stroke="#D63028" stroke-width="3"/><path d="M10 15.086V5.098c0-.556.22-1.09.61-1.483.392-.393.921-.614 1.473-.615h25.834c.552 0 1.081.222 1.472.615.39.394.61.927.611 1.483v9.988l10 7.193V50H0V22.279l10-7.193zm-5.592 8.148L10 26.915v-7.704l-5.592 4.023zM36.667 6.357H13.333V29.11l5.955 3.922 4.852-2.534 5.288 2.571 7.239-4.426V6.357zM24.193 34.252L3.333 45.145v1.498h43.334v-1.464L24.193 34.252zm22.474-7.797L33.006 34.81l13.66 6.642V26.455zM15.89 34.806l-12.558-8.27v14.828l12.558-6.558zM40 19.211v7.394l5.556-3.398L40 19.211z" fill="#0C3165"/></svg><svg fill="none" viewBox="0 0 48 50" id="icon-pr-01" xmlns="http://www.w3.org/2000/svg"><g clip-path="url(#eclip0_1_113)" fill-rule="evenodd" clip-rule="evenodd"><path d="M26.778 42c.751 0 1.503-.357 1.98-.857.479-.5.82-1.286.82-2.072a3.11 3.11 0 00-.82-2.071 2.72 2.72 0 00-1.98-.857c-.752 0-1.503.357-1.981.857a3.11 3.11 0 00-.82 2.071c0 .786.342 1.572.82 2.072.478.5 1.23.857 1.98.857zM10.93 24.929c-.137-.072-.205-.215-.342-.286a3.11 3.11 0 01-.82-2.072c0-.785.342-1.571.82-2.071.478-.5 1.23-.857 1.981-.857.752 0 1.503.357 1.981.857.478.5.82 1.286.82 2.071a3.11 3.11 0 01-.82 2.072c-.478.5-1.23.857-1.98.857-.616-.071-1.23-.214-1.64-.571zm25.958-11.643v.143a3.11 3.11 0 01-.82 2.071c-.478.5-1.23.857-1.981.857-.752 0-1.503-.357-1.981-.857a3.11 3.11 0 01-.82-2.071c0-.786.342-1.572.82-2.072.478-.5 1.23-.857 1.98-.857.752 0 1.504.357 1.982.857s.751 1.143.82 1.929z" fill="#fff"/><path d="M26.777 42c.752 0 1.503-.357 1.982-.857.478-.5.82-1.286.82-2.072a3.11 3.11 0 00-.82-2.071 2.72 2.72 0 00-1.982-.857c-.75 0-1.502.357-1.98.857a3.11 3.11 0 00-.82 2.071c0 .786.341 1.572.82 2.072.478.5 1.23.857 1.98.857zM23.704 1.286c-3.553 0-6.9.928-9.905 2.428-.752 2.357-1.298 4.857-1.503 7.357-.069.429-.069.858-.069 1.286 3.416.5 6.9 1.429 10.179 2.786 2.459-1.072 5.055-1.857 7.65-2.286a4.459 4.459 0 011.162-2.428c.205-.215.41-.358.614-.5-.887-1.5-1.98-2.929-3.278-4.358-1.367-1.5-3.006-2.928-4.85-4.285zM12.296 4.57c-.615 2.072-.957 4.215-1.162 6.358-.068.428-.068.857-.068 1.285-2.05-.214-4.167-.285-6.148-.143.888-1.357 1.845-2.714 3.006-3.857a24.717 24.717 0 014.372-3.643zM4.099 13.43C2.254 16.857 1.229 20.786 1.229 25c0 1.643.137 3.214.479 4.786 1.298.428 3.005.857 5.055 1.143A29.435 29.435 0 019.768 25.5c-.751-.786-1.16-1.786-1.16-3 0-1.143.477-2.214 1.16-3 .41-.429.957-.786 1.571-1-.205-1.643-.341-3.357-.273-5.071a37.829 37.829 0 00-6.967 0zM1.98 31.214c.615 2.357 1.571 4.643 2.869 6.643.273-2 .751-3.928 1.435-5.714-1.708-.286-3.143-.572-4.304-.929zm3.894 8.215c.205-2.5.751-4.858 1.57-7.072v-.071c2.87.357 6.217.643 9.77.571l.136.143c1.57 1.857 3.347 3.5 5.533 4.857-.068.357-.137.714-.137 1.143 0 .714.137 1.357.41 1.929C21.381 42 19.4 42.857 17.351 43.5c-2.118.643-4.304.929-6.558.929-1.093-.786-2.05-1.643-3.006-2.643-.614-.715-1.298-1.5-1.912-2.357zm6.83 6.214c1.708-.143 3.416-.429 5.056-.929 2.186-.643 4.235-1.571 6.216-2.714.751.786 1.708 1.214 2.869 1.214 1.161 0 2.117-.5 2.869-1.214.273-.286.478-.571.615-.857 1.503.428 3.142.714 4.85.928 1.366.143 2.8.215 4.303.215-4.03 4-9.495 6.428-15.506 6.428a22.105 22.105 0 01-11.271-3.071zM40.646 41c1.16-1.357 2.185-2.786 3.073-4.429-.888-2.857-2.527-5.642-4.645-8.214-1.502.786-3.142 1.5-4.85 2-1.024 2.286-2.39 4.357-4.03 6.286a4.26 4.26 0 01.683 2.286c0 .285 0 .642-.068.928a42.34 42.34 0 004.508.857c1.64.286 3.416.357 5.328.286zm3.825-5.929c-.956-2.5-2.46-5-4.304-7.285 2.664-1.572 4.85-3.572 6.285-6.143.136 1.071.205 2.214.205 3.357-.069 3.571-.82 7-2.186 10.071zm1.571-15.428c-.273-1.357-.751-2.714-1.23-4-1.093-.429-2.254-.857-3.483-1.143-1.093-.286-2.186-.429-3.28-.571a4.933 4.933 0 01-1.16 2.5 3.996 3.996 0 01-1.025.785c.41 2.143.478 4.286.205 6.429 1.161 1 2.254 2.143 3.21 3.214 3.074-1.786 5.465-4.143 6.763-7.214zM43.991 14c-.819-.286-1.639-.5-2.459-.714-1.16-.286-2.39-.5-3.552-.643-.136-.857-.546-1.572-1.093-2.214-.751-.786-1.707-1.215-2.869-1.215-.41 0-.751.072-1.16.143-.957-1.571-2.118-3.143-3.485-4.714C28.35 3.5 27.12 2.357 25.821 1.286c5.465.5 10.452 3 14.14 6.857 1.64 1.786 3.006 3.714 4.03 5.857zM7.037 7.286C11.339 2.786 17.282 0 23.909 0c6.626 0 12.569 2.786 16.872 7.286C45.153 11.857 47.817 18.07 47.817 25c0 6.929-2.664 13.143-6.968 17.643C36.478 47.214 30.535 50 23.91 50c-6.627 0-12.57-2.786-16.941-7.286A41.34 41.34 0 014.782 40C1.776 35.857 0 30.643 0 25c0-6.929 2.664-13.143 7.036-17.714zm22.269 28.5a3.95 3.95 0 00-2.527-.929c-1.093 0-2.118.5-2.87 1.214-.204.215-.41.429-.546.715a24.354 24.354 0 01-4.508-3.857c3.893-.143 7.855-.572 11.612-1.429.683-.143 1.366-.357 2.05-.5a23.302 23.302 0 01-3.211 4.786zM10.93 24.929c-.137-.072-.205-.215-.342-.286a3.11 3.11 0 01-.82-2.072c0-.785.342-1.571.82-2.071.478-.5 1.23-.857 1.981-.857.751 0 1.503.357 1.981.857.478.5.82 1.286.82 2.071a3.11 3.11 0 01-.82 2.072c-.478.5-1.23.857-1.98.857-.616-.071-1.23-.214-1.64-.571zm-.205 1.357c.546.285 1.161.5 1.844.5.342 0 .615-.072.956-.143.752 1.786 1.708 3.428 2.87 5.071a72.98 72.98 0 01-8.334-.5 21.168 21.168 0 012.664-4.928zm3.893-.143l.82-.643c.751-.786 1.161-1.786 1.161-3 0-.714-.205-1.429-.478-2 1.981-1.571 4.099-2.929 6.353-4 2.05.857 3.962 1.786 5.875 2.929a43.471 43.471 0 016.49 4.642c-.137 1-.342 1.929-.616 2.929-.205.786-.546 1.571-.82 2.357a32.54 32.54 0 01-3.073.786c-4.03.928-8.334 1.357-12.433 1.428-1.366-1.642-2.459-3.5-3.279-5.428zm.752-6.643c-.752-.714-1.708-1.214-2.8-1.214h-.07c-.204-1.572-.273-3.143-.273-4.643 2.938.428 5.807 1.214 8.676 2.286A32.336 32.336 0 0015.37 19.5zm21.517-6.214v.143a3.11 3.11 0 01-.82 2.071c-.477.5-1.229.857-1.98.857-.752 0-1.503-.357-1.981-.857a3.11 3.11 0 01-.82-2.071c0-.786.342-1.572.82-2.072.478-.5 1.23-.857 1.98-.857.752 0 1.504.357 1.982.857s.751 1.143.82 1.929zm-2.185 4.285c.273 1.715.341 3.358.273 5.072-1.845-1.572-3.894-3-6.08-4.286a44.808 44.808 0 00-4.85-2.5 30.935 30.935 0 016.08-1.714 4.205 4.205 0 001.093 2.214c.751.786 1.707 1.214 2.869 1.214.205.072.41.072.614 0zm3.483 9.858c-1.093.571-2.186 1-3.415 1.428.205-.5.341-1 .478-1.5.205-.786.41-1.571.547-2.286.887.786 1.639 1.572 2.39 2.358z" fill="#3C6EB2"/></g><defs><clipPath id="eclip0_1_113"><path fill="#fff" d="M0 0h47.817v50H0z"/></clipPath></defs></svg><svg fill="none" viewBox="0 0 50 50" id="icon-pr-02" xmlns="http://www.w3.org/2000/svg"><path fill-rule="evenodd" clip-rule="evenodd" d="M19.929 30.5c-.214.214-.572.143-.714-.071-.215-.215-.143-.572.071-.715L33.5 17.571c.215-.214.572-.142.715.072.214.214.142.571-.072.714L19.93 30.5zm-10.5-3.143c.286 0 .5.214.5.5 0 .286-.214.5-.5.5H5.857a.488.488 0 01-.5-.5c0-.286.215-.5.5-.5H9.43zm12.214 13.214c0-.285.214-.5.5-.5.286 0 .5.215.5.5v3.572c0 .286-.214.5-.5.5a.488.488 0 01-.5-.5V40.57zM34.857 28.43h3.572c.286 0 .5-.215.5-.5 0-.286-.214-.5-.5-.5h-3.572c-.285 0-.5.214-.5.5-.071.285.215.5.5.5zM22.643 15.214c0 .286-.214.5-.5.5a.488.488 0 01-.5-.5v-3.571c0-.286.214-.5.5-.5.286 0 .5.214.5.5v3.571zm14.786-3.357c.643.572 1.143 1.143 1.714 1.786.5.643 1 1.286 1.5 2l1.786-1.5-3.143-3.786-1.857 1.5zM15.715 3.071h12.857v-2H15.715v2z" fill="#fff"/><path fill-rule="evenodd" clip-rule="evenodd" d="M24.571 5.929V4.143h-4.928v1.786c.786-.072 1.643-.143 2.428-.143.929 0 1.715.071 2.5.143zM6.5 12.286c2-2 4.5-3.643 7.214-4.786 1.572-.643 3.215-1.143 4.929-1.429V4.143h-3.429a.488.488 0 01-.5-.5V.5c0-.286.215-.5.5-.5h13.929c.286 0 .5.214.5.5v3.071c0 .286-.214.5-.5.5h-3.429V6c1.715.286 3.357.786 4.929 1.429 2.214.928 4.214 2.142 6 3.714l2.286-1.929c.214-.214.571-.143.714.072l3.857 4.571c.214.214.143.572-.071.714L41.143 16.5a15.847 15.847 0 011.428 2.929c1.072 2.642 1.715 5.5 1.715 8.428 0 3-.572 5.857-1.643 8.429a23.557 23.557 0 01-4.786 7.214c-2.071 2.071-4.5 3.714-7.214 4.786C28 49.429 25.143 50 22.143 50s-5.857-.571-8.429-1.643A23.555 23.555 0 016.5 43.571c-2.071-2-3.714-4.5-4.786-7.214C.643 33.714 0 30.857 0 27.857S.571 22 1.643 19.43C2.857 16.714 4.5 14.286 6.5 12.286zm7.571-3.857A21.362 21.362 0 007.214 13a21.363 21.363 0 00-4.571 6.857 21.017 21.017 0 00-1.572 8c0 2.857.572 5.572 1.572 8.072a21.363 21.363 0 004.571 6.857 21.362 21.362 0 006.857 4.571c2.5 1 5.215 1.572 8.072 1.572 2.857 0 5.571-.572 8.071-1.572a21.361 21.361 0 006.857-4.571 21.364 21.364 0 004.572-6.857c1-2.5 1.571-5.215 1.571-8.072 0-2.857-.571-5.571-1.571-8.071a21.363 21.363 0 00-4.572-6.857c-.214-.215-.5-.5-.785-.715l-.072-.071c-1.785-1.572-3.785-2.857-6-3.786-1.571-.643-3.285-1.143-5-1.357h-.143a19.233 19.233 0 00-2.857-.214h-.071c-.572 0-1.072 0-1.572.071h-.142c-.358 0-.786.072-1.143.143H19.07a23.627 23.627 0 00-5 1.429zm20.5 7a19.727 19.727 0 00-2.642-2.215C31 12.571 30 12 28.929 11.571c-1.072-.428-2.143-.785-3.286-1-1.143-.214-2.286-.357-3.429-.357-1.143 0-2.357.143-3.428.357-1.143.215-2.215.572-3.286 1-1.071.429-2.071 1-3 1.643-.929.643-1.857 1.357-2.643 2.215a19.73 19.73 0 00-2.214 2.642c-.643.929-1.214 2-1.643 3-.429 1.072-.786 2.143-1 3.286-.214 1.143-.357 2.286-.357 3.429A18 18 0 005 31.214c.214 1.143.571 2.215 1 3.286.429 1.071 1 2.071 1.643 3 .643.929 1.357 1.857 2.214 2.643.786.786 1.714 1.5 2.643 2.143.929.643 2 1.214 3 1.643 1.071.428 2.143.785 3.286 1 1.143.214 2.285.357 3.428.357 1.215 0 2.357-.143 3.429-.357 1.143-.215 2.214-.572 3.286-1 1.071-.429 2.071-1 3-1.643.928-.643 1.857-1.357 2.642-2.215.786-.785 1.5-1.714 2.143-2.642.643-.929 1.215-1.929 1.643-3 .429-1.072.786-2.143 1-3.286.214-1.143.357-2.286.357-3.429 0-1.214-.143-2.357-.357-3.428-.214-1.143-.571-2.215-1-3.286-.428-1.071-1-2.071-1.643-3-.571-.857-1.357-1.714-2.143-2.571zm-2.071-3c-1-.643-2.071-1.286-3.214-1.715-1.072-.428-2.286-.785-3.429-1.071-1.286-.214-2.5-.357-3.714-.357s-2.429.143-3.643.357a15.24 15.24 0 00-3.5 1.071 22.913 22.913 0 00-3.214 1.715c-1 .714-2 1.428-2.857 2.285-.858.857-1.643 1.786-2.286 2.857-.643 1-1.286 2.072-1.714 3.215a28.385 28.385 0 00-1.072 3.5 19.688 19.688 0 00-.357 3.643c0 1.214.143 2.428.357 3.642a15.239 15.239 0 001.072 3.5 22.917 22.917 0 001.714 3.215c.714 1 1.428 2 2.286 2.857.857.857 1.785 1.643 2.785 2.286 1 .642 2.072 1.285 3.215 1.714 1.142.428 2.285.786 3.5 1.071 1.142.215 2.357.357 3.642.357 1.215 0 2.429-.142 3.643-.357a15.24 15.24 0 003.5-1.071 22.929 22.929 0 003.215-1.714c1-.715 2-1.429 2.857-2.286.857-.857 1.643-1.786 2.285-2.786.643-1 1.286-2.071 1.715-3.214.428-1.072.785-2.286 1.071-3.429.214-1.143.357-2.428.357-3.643 0-1.214-.143-2.428-.357-3.642a15.234 15.234 0 00-1.071-3.5 22.913 22.913 0 00-1.715-3.215c-.714-1-1.428-2-2.285-2.857-.857-1-1.786-1.786-2.786-2.428zm4.929-.572c.642.572 1.142 1.143 1.714 1.786.5.643 1 1.286 1.5 2l1.786-1.5-3.143-3.786-1.857 1.5zM15.714 3.071h12.857v-2H15.714v2z" fill="#3C6EB2"/></svg><svg fill="none" viewBox="0 0 50 50" id="icon-pr-03" xmlns="http://www.w3.org/2000/svg"><path fill-rule="evenodd" clip-rule="evenodd" d="M42 13.286c.285.357.5.857.5 1.428a2.3 2.3 0 01-.5 1.429c-.286.286-.643.5-1 .5-.358 0-.715-.214-1-.5a4.756 4.756 0 01-.429-.857c-.072-.215-.072-.357-.072-.572 0-.571.143-1.071.43-1.428.285-.286.642-.5 1-.5.428-.072.785.143 1.07.5zM25.07 16.714c.286.357.428.857.428 1.429 0 .571-.142 1.071-.428 1.428-.286.358-.643.5-1 .5s-.714-.214-1-.5a2.3 2.3 0 01-.5-1.428c0-.572.143-1.072.5-1.429.286-.285.643-.5 1-.5s.714.143 1 .5zm-12.286 21c.143.429.072 1-.143 1.5-.214.5-.571.929-1 1.143a1.293 1.293 0 01-1.143.072c-.357-.143-.57-.5-.714-.858-.143-.428-.071-1 .143-1.5.214-.5.571-.928 1-1.142a1.293 1.293 0 011.143-.072c.143.072.214.143.357.214.143.143.286.358.357.643z" fill="#fff"/><path fill-rule="evenodd" clip-rule="evenodd" d="M16.286 3.643L3.57 2.07c-.285-.071-.642 0-.928.072a1.703 1.703 0 00-.786.428c-.286.286-.428.5-.571.786a1.977 1.977 0 00-.215.929v41.428c0 .357.072.643.215.929.143.286.285.5.571.714.214.214.5.357.786.429h.071c.286.071.572.071.929.071l12.714-1.643V33l-2.786 3.714c.143.215.286.5.358.715.214.642.142 1.428-.143 2.214-.286.714-.857 1.357-1.5 1.643-.643.357-1.357.428-2 .143-.072 0-.072 0-.143-.072-.643-.286-1.072-.857-1.286-1.571-.214-.643-.143-1.429.143-2.215a2.853 2.853 0 011.5-1.642c.643-.358 1.357-.429 2.071-.143.072 0 .143.071.215.071l3.643-4.786V3.643h-.143zm1.143 25.571l4.857-8.928-.072-.072a3.456 3.456 0 01-.714-2.071c0-.786.286-1.572.714-2.072.5-.571 1.143-.928 1.857-.928.715 0 1.358.357 1.858.928.285.358.5.858.642 1.429l6.072-.357V1.786L17.429 3.643v25.571zm5.714-8.285c.286.142.571.214.928.214.715 0 1.358-.357 1.858-.929a3.383 3.383 0 00.714-1.714l6-.357v30.071L23.07 46.93l-5.571-.715V31.5l5.643-10.571zm10.571-4.143L38.5 15v-.357c0-.786.286-1.572.714-2.072a2.37 2.37 0 011.857-.928c.715 0 1.358.357 1.858.928.428.572.714 1.286.714 2.072s-.286 1.571-.714 2.071c-.5.572-1.143.929-1.858.929-.714 0-1.357-.357-1.857-.929l-.428-.643-5.072 1.858v30.285L47 46.43c.571-.072 1-.358 1.357-.715s.572-.928.572-1.428V5.57c0-.571-.215-1.071-.572-1.5C48 3.714 47.5 3.43 47 3.357L33.714 1.786v15zm8.286-3.5c.286.357.5.857.5 1.428 0 .572-.214 1.072-.5 1.429-.286.286-.643.5-1 .5s-.714-.214-1-.5a4.755 4.755 0 01-.429-.857c-.071-.215-.071-.357-.071-.572 0-.571.143-1.071.429-1.428.285-.286.642-.5 1-.5.428-.072.785.143 1.071.5zm-16.929 3.428c.286.357.429.857.429 1.429 0 .571-.143 1.071-.429 1.428-.285.358-.642.5-1 .5-.357 0-.714-.214-1-.5a2.3 2.3 0 01-.5-1.428c0-.572.143-1.072.5-1.429.286-.285.643-.5 1-.5.358 0 .715.143 1 .5zm-12.285 21c.143.429.071 1-.143 1.5-.214.5-.572.929-1 1.143a1.293 1.293 0 01-1.143.072c-.357-.143-.571-.5-.714-.858-.143-.428-.072-1 .143-1.5.214-.5.571-.928 1-1.142a1.293 1.293 0 011.142-.072c.143.072.215.143.358.214.142.143.285.358.357.643zm8.071-35.571l12.214-1.5H33.5l13.571 1.714c.858.072 1.572.5 2.072 1.072C49.714 4 50 4.786 50 5.57v38.715c0 .857-.286 1.571-.786 2.214-.5.571-1.214 1-2.071 1.071L33.57 49.357h-.285c-.072 0-.143.072-.215 0l-15.928-2.071h-.572L3.714 49c-.5.071-.928 0-1.357-.071h-.071c-.429-.143-.857-.358-1.215-.715-.357-.357-.642-.714-.857-1.143A4.158 4.158 0 010 45.714V4.286c0-.5.071-.929.286-1.357.214-.429.5-.786.857-1.143.357-.286.786-.572 1.214-.715C2.786.93 3.286.93 3.714.93L16.571 2.5h.572l3.714-.357z" fill="#3C6EB2"/></svg><svg fill="none" viewBox="0 0 50 50" id="icon-pr-04" xmlns="http://www.w3.org/2000/svg"><g clip-path="url(#hclip0_1_128)" fill-rule="evenodd" clip-rule="evenodd"><path d="M41.072 32.643c-.857.143-1.643.571-2.072 1.214-.5.643-.714 1.5-.642 2.357.142.857.571 1.643 1.214 2.143.643.5 1.5.714 2.357.643.857-.143 1.643-.572 2.143-1.214.5-.643.714-1.5.643-2.358-.143-.857-.572-1.642-1.215-2.07-.714-.572-1.571-.787-2.428-.715zm-20 .785c-.857 0-1.714.358-2.286.93a3.177 3.177 0 00-.928 2.285c0 .857.357 1.643.928 2.285a3.177 3.177 0 002.286.93c.857 0 1.643-.358 2.286-.93a3.177 3.177 0 00.928-2.285c0-.857-.357-1.643-.928-2.286a3.178 3.178 0 00-2.286-.928zm-13.572 0c.858 0 1.643.358 2.286.93.572.57.929 1.356.929 2.285 0 .857-.357 1.643-.929 2.285a3.177 3.177 0 01-2.286.93c-.857 0-1.714-.358-2.285-.93-.572-.57-.929-1.428-.929-2.285 0-.857.357-1.643.929-2.286.643-.571 1.428-.928 2.285-.928z" fill="#fff"/><path d="M12.785 4.286h-10.5c-.214 0-.5.071-.642.285a.905.905 0 00-.286.643V45.43c0 .285.071.5.286.642.142.143.428.286.642.286h10.5c.286 0 .5-.071.643-.285.143-.143.286-.43.286-.643V5.214c0-.285-.071-.5-.286-.643-.143-.214-.357-.285-.643-.285zm28.286 28.357c-.857.143-1.643.571-2.071 1.214-.5.643-.715 1.5-.643 2.357.143.858.571 1.643 1.214 2.143.643.5 1.5.715 2.357.643.857-.143 1.643-.571 2.143-1.214.5-.643.714-1.5.643-2.357-.143-.858-.571-1.643-1.214-2.072-.715-.571-1.572-.785-2.429-.714zm-3.071.5c.714-.929 1.714-1.572 2.928-1.714 1.215-.143 2.357.143 3.286.857.929.714 1.571 1.714 1.714 2.928.143 1.215-.143 2.358-.857 3.286-.714.929-1.714 1.572-2.928 1.714-1.215.143-2.358-.142-3.286-.857-.929-.714-1.572-1.714-1.714-2.928-.143-1.215.142-2.358.857-3.286zm-2.715-15.714c-.357.071-.642-.215-.714-.5-.071-.357.214-.643.5-.715l7.286-1c.357-.071.643.215.714.5.072.357-.214.643-.5.715l-7.286 1zm6.358-8c.357-.072.642.214.714.5.071.357-.214.643-.5.714l-7.286 1c-.357.071-.643-.214-.714-.5-.072-.357.214-.643.5-.714l7.286-1zM42.357 3c.286 0 .5.071.714.214.214.143.286.357.357.643l5.5 39.857c0 .286-.071.5-.214.715-.143.214-.357.357-.571.357l-10.429 1.428c-.286 0-.5-.071-.714-.214-.215-.143-.286-.357-.357-.643L31.143 5.5c0-.286.071-.5.214-.714.143-.215.357-.286.571-.357L42.357 3zm-10.5.214l10.286-1.428h.071c.571-.072 1.143.071 1.571.428.429.357.715.786.858 1.357v.072l5.428 39.786v.071c.072.572-.071 1.143-.428 1.572a2.48 2.48 0 01-1.358.857h-.071l-10.286 1.428h-.071c-.572.072-1.143-.071-1.572-.428a2.48 2.48 0 01-.857-1.358V45.5l-5.5-39.786v-.071c-.071-.572.072-1.143.429-1.572a2.479 2.479 0 011.357-.857h.143zM21.07 33.43c-.857 0-1.714.357-2.286.928a3.177 3.177 0 00-.928 2.286c0 .857.357 1.643.928 2.286a3.178 3.178 0 002.286.928c.857 0 1.643-.357 2.286-.928a3.177 3.177 0 00.928-2.286c0-.857-.357-1.643-.928-2.286a3.177 3.177 0 00-2.286-.928zM18 33.5a4.486 4.486 0 016.285 0 4.486 4.486 0 010 6.286 4.485 4.485 0 01-6.285 0 4.486 4.486 0 01-1.286-3.143A3.953 3.953 0 0118 33.5zm-.572-15.928a.64.64 0 01-.643-.643.64.64 0 01.643-.643h7.357a.64.64 0 01.643.643.64.64 0 01-.643.643h-7.357zm7.357-7.072a.64.64 0 01.643.643.64.64 0 01-.643.643h-7.357a.64.64 0 01-.643-.643.64.64 0 01.643-.643h7.357zm1.643-6.214c.286 0 .5.071.643.285.143.143.286.429.286.643V45.43c0 .285-.072.5-.286.642-.143.143-.428.286-.643.286h-10.5c-.285 0-.5-.071-.643-.285-.142-.215-.285-.358-.285-.643V5.214c0-.214.071-.5.214-.643.214-.214.429-.285.714-.285h10.5zM15.928 3h10.5c.572 0 1.143.214 1.5.643.357.428.643.928.643 1.571V45.43c0 .571-.214 1.142-.643 1.5-.357.357-.928.642-1.5.642h-10.5c-.571 0-1.143-.214-1.5-.642-.357.357-.928.642-1.5.642H2.285c-.571 0-1.142-.214-1.5-.642-.357-.358-.642-.929-.642-1.5V5.214c0-.571.214-1.071.571-1.5l.071-.071c.358-.357.929-.643 1.5-.643h10.5c.572 0 1.143.214 1.5.643.5-.357 1-.643 1.643-.643zM7.5 33.429c.857 0 1.643.357 2.285.928.572.572.929 1.357.929 2.286 0 .857-.357 1.643-.929 2.286a3.178 3.178 0 01-2.285.928c-.857 0-1.715-.357-2.286-.928-.571-.572-.929-1.429-.929-2.286s.358-1.643.929-2.286c.643-.571 1.429-.928 2.286-.928zm-3.143.071a4.486 4.486 0 016.286 0 4.486 4.486 0 010 6.286 4.486 4.486 0 01-6.286 0 4.486 4.486 0 010-6.286zm-.5-15.928a.64.64 0 01-.643-.643.64.64 0 01.643-.643h7.357a.64.64 0 01.643.643.64.64 0 01-.643.643H3.857zm7.286-7.072a.64.64 0 01.642.643.64.64 0 01-.642.643H3.857a.64.64 0 01-.643-.643.64.64 0 01.643-.643h7.286z" fill="#3C6EB2"/></g><defs><clipPath id="hclip0_1_128"><path fill="#fff" d="M0 0h50v50H0z"/></clipPath></defs></svg><svg fill="none" viewBox="0 0 50 50" id="icon-pr-05" xmlns="http://www.w3.org/2000/svg"><g clip-path="url(#iclip0_1_133)" fill-rule="evenodd" clip-rule="evenodd"><path d="M25 28.214c-1 0-1.928.429-2.571 1.072a3.675 3.675 0 00-1.072 2.571c0 .929.358 1.786.929 2.429l.071.071.072.072A3.675 3.675 0 0025 35.5c1 0 1.929-.429 2.572-1.071a3.675 3.675 0 001.071-2.572c0-1-.428-1.928-1.071-2.571C26.929 28.57 26 28.214 25 28.214z" fill="#fff"/><path d="M24.429 23.357c0-.286.214-.571.571-.571.286 0 .571.285.571.571v3.786a4.9 4.9 0 012.786 1.357c.857.857 1.357 2.071 1.357 3.357 0 1-.285 1.929-.857 2.714l3 3a.56.56 0 010 .786.56.56 0 01-.786 0l-2.928-3c-.857.786-1.929 1.214-3.214 1.214-1.215 0-2.286-.428-3.072-1.142L19 38.286a.56.56 0 01-.786 0 .56.56 0 010-.786l2.929-2.929c-.572-.785-.929-1.714-.929-2.785 0-1.286.5-2.5 1.357-3.357a4.9 4.9 0 012.786-1.358v-3.714h.072zm3.357-10.928a9.008 9.008 0 013.785 2.285c1.643 1.643 2.715 4 2.715 6.5 0 .286-.286.572-.572.572H16.357c-.286 0-.571-.286-.571-.572 0-2.571 1-4.857 2.714-6.5 1-1 2.286-1.857 3.714-2.285-.5-.286-1-.643-1.428-1a5.77 5.77 0 01-1.715-4.143 5.77 5.77 0 011.715-4.143 5.77 5.77 0 014.143-1.714 5.77 5.77 0 014.142 1.714 5.769 5.769 0 011.715 4.143 5.769 5.769 0 01-1.715 4.143 6.158 6.158 0 01-1.285 1zm2.928 3.071A8.161 8.161 0 0025 13.143a8.161 8.161 0 00-5.714 2.357 8.034 8.034 0 00-2.357 5.143H33.07c-.142-2-1-3.857-2.357-5.143zM28.357 3.857C27.5 3 26.286 2.43 25 2.43s-2.5.5-3.357 1.428c-.857.857-1.429 2.072-1.429 3.357 0 1.286.5 2.5 1.429 3.357.857.858 2.071 1.358 3.357 1.358s2.5-.5 3.357-1.358c.857-.857 1.429-2.071 1.429-3.357 0-1.285-.572-2.5-1.429-3.357zM43.571 38.5c.5-.286 1-.643 1.358-1a5.77 5.77 0 001.714-4.143 5.77 5.77 0 00-1.714-4.143 5.77 5.77 0 00-4.143-1.714 5.77 5.77 0 00-4.143 1.714 5.769 5.769 0 00-1.714 4.143c0 1.643.642 3.072 1.714 4.143.428.429.857.786 1.428 1a8.357 8.357 0 00-3.714 2.286c-1.643 1.643-2.714 4-2.714 6.5 0 .285.214.571.571.571H49.5c.286 0 .571-.286.571-.571 0-2.572-1-4.857-2.714-6.5a10.754 10.754 0 00-3.786-2.286zm2.929 3.071a8.034 8.034 0 012.357 5.143H32.714c.143-2 1-3.857 2.357-5.143a8.161 8.161 0 015.715-2.357c2.214 0 4.285.929 5.714 2.357zM44.143 30c.857.857 1.428 2.071 1.428 3.357s-.5 2.5-1.428 3.357c-.857.857-2.072 1.357-3.357 1.357-1.286 0-2.5-.5-3.357-1.357-.858-.857-1.358-2.071-1.358-3.357s.5-2.5 1.358-3.357c.857-.857 2.071-1.429 3.357-1.429 1.285 0 2.5.572 3.357 1.429zm-32.214 8.5c.5-.286 1-.643 1.357-1A5.77 5.77 0 0015 33.357a5.77 5.77 0 00-1.714-4.143A5.77 5.77 0 009.143 27.5 5.77 5.77 0 005 29.214a5.77 5.77 0 00-1.714 4.143A5.77 5.77 0 005 37.5c.429.429.857.786 1.429 1a8.357 8.357 0 00-3.715 2.286C1 42.5 0 44.786 0 47.286c0 .357.286.571.571.571h17.286c.286 0 .572-.286.572-.571 0-2.572-1-4.857-2.715-6.5A10.755 10.755 0 0011.93 38.5zm3 3.071a8.034 8.034 0 012.357 5.143H1.143c.143-2 1-3.857 2.357-5.143a8.161 8.161 0 015.714-2.357c2.215 0 4.215.929 5.715 2.357zM12.57 30c.858.857 1.429 2.071 1.429 3.357s-.5 2.5-1.357 3.357c-.857.857-2.072 1.357-3.357 1.357-1.286 0-2.5-.5-3.357-1.357-.858-.857-1.358-2.071-1.358-3.357s.5-2.5 1.358-3.357c.857-.857 2.071-1.429 3.357-1.429 1.214 0 2.428.572 3.285 1.429zM25 28.214c-1 0-1.929.429-2.571 1.072a3.675 3.675 0 00-1.072 2.571c0 .929.357 1.786.929 2.429l.071.071.072.072A3.675 3.675 0 0025 35.5c1 0 1.929-.429 2.571-1.071a3.675 3.675 0 001.072-2.572c0-1-.429-1.928-1.072-2.571C26.93 28.57 26 28.214 25 28.214z" fill="#3C6EB2"/></g><defs><clipPath id="iclip0_1_133"><path fill="#fff" d="M0 0h50v50H0z"/></clipPath></defs></svg><svg fill="none" viewBox="0 0 50 50" id="icon-pr-06" xmlns="http://www.w3.org/2000/svg"><g clip-path="url(#jclip0_1_138)" fill-rule="evenodd" clip-rule="evenodd"><path d="M22.929 13.428l-4.072.358L21.93 16.5a.556.556 0 01.143.571l-.929 4 3.5-2.071c.143-.072.429-.143.572 0l3.5 2.071-.858-3.928A.555.555 0 0128 16.57l3.072-2.714-3.929-.428a.537.537 0 01-.5-.358L25 9.357l-1.643 3.714c-.071.215-.214.357-.428.357z" fill="#fff"/><path d="M11.143.071h27.714c.286 0 .572.286.572.572V3.57h5.785c.929 0 1.786.358 2.357 1 .643.643 1 1.429 1 2.358v11.285a3.32 3.32 0 01-.357 1.5c-.214.429-.571.857-1 1.215l-7.928 5.785s-.072 0-.072.072l-7.428 5.357c-.286.214-.5.5-.715.785a2.283 2.283 0 00-.214 1v7.93H36c.929 0 1.786.356 2.357 1 .643.642 1 1.428 1 2.356V49.5c0 .286-.286.571-.571.571H11.143c-.286 0-.572-.285-.572-.571v-4.286c0-.928.358-1.785 1-2.357.643-.643 1.429-1 2.358-1h5.642V34.43c0-.358-.071-.715-.214-1a2.232 2.232 0 00-.643-.786l-7.857-5.857-8-5.929c-.428-.357-.786-.714-1-1.214-.214-.429-.357-1-.357-1.5V6.929c0-.929.357-1.786 1-2.358.643-.642 1.429-1 2.357-1h5.786V.643c-.072-.286.214-.572.5-.572zM30.286 43H13.929c-.643 0-1.215.286-1.572.643-.428.428-.643 1-.643 1.571v3.715h26.572v-3.715c0-.643-.286-1.214-.643-1.571-.429-.429-1-.643-1.572-.643h-5.785zM17.5 12.786c-.143 0-.286.071-.429.214a.51.51 0 00.072.786l3.786 3.357-1.072 4.928c-.071.143 0 .286.072.429.142.286.5.357.785.214l4.357-2.571 4.358 2.571c.142.072.285.072.428.072.286-.072.5-.357.429-.643l-1.215-5 3.786-3.357c.072-.072.143-.215.214-.357a.686.686 0 00-.5-.643l-5-.5-2-4.643a.557.557 0 00-.285-.286c-.286-.143-.643 0-.715.286l-2 4.643-5.071.5zm5.429.643l-4.072.357L21.93 16.5a.555.555 0 01.142.571l-.928 4 3.5-2.071c.143-.071.428-.143.571 0l3.5 2.071-.857-3.928A.556.556 0 0128 16.57l3.071-2.714-3.928-.428a.537.537 0 01-.5-.358L25 9.357l-1.643 3.714c-.071.215-.214.358-.428.358zm16.5-8.786v20.5l7.071-5.214c.286-.215.5-.5.714-.786.143-.286.215-.643.215-1V6.929c0-.643-.286-1.215-.643-1.572-.429-.428-1-.643-1.572-.643H39.43v-.071zm-28.858 20.5v-20.5H4.857c-.643 0-1.214.286-1.571.643-.429.428-.715 1-.715 1.643v11.285c0 .357.072.715.215 1 .143.286.357.572.714.786l7.071 5.143zM38.286 1.214H11.714V26l7.643 5.714c.429.357.786.715 1 1.215.214.428.357 1 .357 1.5v7.5h9.072v-8c0-.572.143-1.072.357-1.5.214-.429.571-.858 1-1.215L38.286 26V1.214z" fill="#3C6EB2"/></g><defs><clipPath id="jclip0_1_138"><path fill="#fff" d="M0 0h50v50H0z"/></clipPath></defs></svg><svg fill="none" viewBox="0 0 50 50" id="icon-res-01" xmlns="http://www.w3.org/2000/svg"><path d="M41.453 41.453c-4.416 4.416-10.256 6.766-16.524 6.766-6.268 0-12.108-2.421-16.524-6.766C3.989 37.037 1.567 31.268 1.567 25c0-6.268 2.493-12.108 6.766-16.524C12.82 4.06 18.59 1.709 24.858 1.709c6.267 0 12.108 2.35 16.524 6.767 4.416 4.416 6.766 10.256 6.766 16.524.143 6.125-2.28 12.037-6.695 16.453zm1.14-34.117C37.892 2.564 31.623 0 25 0 18.305 0 12.037 2.564 7.336 7.336 2.636 11.966 0 18.234 0 25c0 6.766 2.564 12.892 7.336 17.664C12.037 47.364 18.305 50 25 50c6.695 0 12.963-2.564 17.664-7.336C47.364 37.963 50 31.695 50 25a24.783 24.783 0 00-7.407-17.664z" fill="#0C3165"/><path d="M32.123 15.598c-1.995 0-3.704 1.71-3.704 3.704 0 .356.285.641.641.641a.638.638 0 00.641-.64 2.477 2.477 0 012.493-2.494 2.477 2.477 0 012.493 2.493c0 .356.285.641.64.641a.638.638 0 00.642-.64c-.143-1.995-1.852-3.705-3.846-3.705zM22.15 19.302c0-1.994-1.709-3.704-3.703-3.704-1.994 0-3.704 1.71-3.704 3.704 0 .356.285.641.641.641a.638.638 0 00.641-.64 2.477 2.477 0 012.493-2.494 2.477 2.477 0 012.493 2.493c0 .356.285.641.641.641.214 0 .499-.285.499-.64zM35.327 28.917c-.07-.07-.285-.07-.356-.07-.356 0-.64.142-.783.498-1.496 3.561-5.128 5.84-9.188 5.84-4.131 0-7.764-2.279-9.188-5.84-.143-.356-.428-.499-.784-.499-.07 0-.285 0-.356.071a1.227 1.227 0 00-.427.428c-.071.142-.071.427 0 .64 1.78 4.132 5.983 6.91 10.826 6.91 4.772 0 8.903-2.636 10.755-6.91.071-.142.071-.427 0-.64-.142-.143-.356-.285-.499-.428z" fill="#828F96"/></svg><svg fill="none" viewBox="0 0 50 50" id="icon-res-02" xmlns="http://www.w3.org/2000/svg"><path d="M28.428 33.857V32h-6.857v4.857h6.857v-3z" fill="#828F96"/><path d="M28.428 33.857s0-.071 0 0V32h-6.857v4.857h6.857v-3zm-27.214.429V41c0 .643.286 1.143.643 1.643.357.357 1 .643 1.5.643h43.071c.643 0 1.143-.286 1.5-.643.357-.429.643-1 .643-1.643v-6.714H29.5v3.143c0 .285-.286.571-.572.571H21c-.286 0-.572-.286-.572-.571v-3.143H1.214zM46.5 12.429h-43c-.643 0-1.143.285-1.5.642-.357.429-.643 1-.643 1.643v18.572H20.57V31.57c0-.285.286-.5.572-.5h7.928c.286 0 .572.286.572.5v1.715h19.214V14.714c0-.643-.286-1.143-.643-1.643-.5-.357-1.071-.642-1.714-.642zm-43-1.072h12.857v-3c0-.571.214-1 .571-1.357.286-.357.786-.571 1.286-.571h13.429c.571 0 1 .214 1.357.571s.571.786.571 1.357v3h12.857c.929 0 1.715.357 2.357 1 .643.643 1 1.429 1 2.357v26.5c0 .929-.357 1.786-1 2.286-.642.643-1.428 1-2.357 1H3.5c-.929 0-1.715-.357-2.357-1-.643-.643-1-1.429-1-2.286V14.786c0-.929.357-1.786 1-2.357.642-.715 1.428-1.072 2.357-1.072zm14 0H32.57v-3c0-.286-.071-.428-.286-.643-.214-.214-.357-.285-.642-.285H18.285c-.285 0-.428.071-.642.285-.215.215-.286.357-.286.643v3h.143z" fill="#0C3165"/></svg><svg fill="none" viewBox="0 0 50 50" id="icon-res-03" xmlns="http://www.w3.org/2000/svg"><path fill-rule="evenodd" clip-rule="evenodd" d="M29.782 14.792a.766.766 0 00-.572-.1.766.766 0 00-.49.312l-.004.007-.004.006L17.52 34.286c-.526-.117-1.075-.17-1.579-.03-.789.162-1.487.711-1.876 1.483L10 42.802a2.974 2.974 0 00-.31 2.413c.229.761.693 1.47 1.485 1.866.748.374 1.597.538 2.386.305.789-.162 1.487-.71 1.874-1.482l4.067-7.063a2.974 2.974 0 00.31-2.413l-.008-.027-.015-.025a28.58 28.58 0 01-.082-.145c-.22-.39-.432-.766-.817-1.138l11.11-19.248a.768.768 0 00.094-.564.766.766 0 00-.311-.489zm-13.5 20.948c.432-.123.796-.064 1.178.127.346.173.598.53.728.987.123.429.066.791-.123 1.17l-4.067 7.066-.004.006-.003.007c-.174.346-.532.598-.988.728-.431.123-.795.065-1.177-.126-.347-.173-.598-.531-.729-.988-.122-.428-.065-.791.123-1.17l4.068-7.065.004-.006.003-.007c.173-.347.531-.598.988-.729z" fill="#828F96"/><path fill-rule="evenodd" clip-rule="evenodd" d="M36.428 11l3.357 1.928 1.643-2.714c.286-.5.357-1.071.214-1.643-.142-.5-.5-1-1-1.285l-9.857-5.643a2.189 2.189 0 00-1.643-.215c-.5.143-1 .5-1.285 1l-1.5 2.858 3.357 1.928c.214.143.286.5.143.714-.143.215-.5.286-.715.143l-3.357-1.928-2.071 3.571 3.357 1.929c.286.143.357.5.214.714-.143.214-.5.286-.714.143l-3.357-1.929-2.072 3.572L24.5 16.07c.214.143.285.5.142.715-.142.214-.5.285-.714.142L20.571 15 18.5 18.57l3.428 2c.286.143.357.5.214.715-.142.214-.5.285-.714.142L18.071 19.5 16 23.07l3.357 1.857c.285.143.357.5.214.715-.143.214-.5.285-.714.143L15.5 23.857l-2.643 4.429v7.071c0 .072 0 .214-.072.286l-3.857 6.643c-.571 1-.643 2.142-.428 3.142.357 1.072 1 2 2 2.572 1 .571 2.142.643 3.142.428 1.072-.357 2-1 2.572-2l3.714-6.785c0-.105.038-.133.087-.168.018-.013.037-.027.056-.047l6.143-3.5 2.643-4.428L25.5 29.57c-.215-.143-.286-.5-.143-.714.143-.214.5-.286.714-.143l3.357 1.929L31.5 27.07l-3.358-1.928c-.285-.143-.357-.5-.214-.715.143-.214.5-.285.714-.142L32 26.214l2.071-3.571-3.357-1.929c-.214-.143-.286-.5-.143-.714.143-.214.5-.286.714-.143l3.357 1.929 2.072-3.572-3.357-1.928c-.286-.143-.357-.5-.215-.715.143-.214.5-.285.715-.143l3.357 1.93 2.071-3.572-3.357-1.929c-.286-.143-.357-.5-.214-.714.143-.215.5-.286.714-.143zm4.714-4.714c.786.5 1.286 1.214 1.5 2 .215.785.143 1.642-.142 2.428L40.57 14l-2.643 4.428-2.643 4.43-2.643 4.428L30 31.714l-2.929 5.072c-.048.095-.095.127-.143.158a.432.432 0 00-.071.056l-6.143 3.5-3.786 6.571c-.714 1.215-1.857 2.143-3.143 2.429-1.285.357-2.785.214-4-.5-1.214-.714-2.143-1.857-2.428-3.143a5.68 5.68 0 01.571-4l3.786-6.571v-7.072c0-.071 0-.143.071-.214l2.786-5.143 2.571-4.5 2.643-4.428 2.643-4.43L25 5.072l1.928-3.214c.5-.786 1.214-1.286 2-1.5.786-.286 1.643-.214 2.429.286l9.785 5.643z" fill="#0C3165"/></svg><svg fill="none" viewBox="0 0 50 50" id="icon-res-04" xmlns="http://www.w3.org/2000/svg"><path d="M34.143 18.143c-1 0-1.714.785-1.714 1.714 0 .929.785 1.714 1.714 1.714 1 0 1.714-.785 1.714-1.714 0-.928-.785-1.714-1.714-1.714zM32.714 31.572h-2.928v-1.858H30.714c1.072 0 1.857.572 2.143 1.572l.072.214-.215.072zm.143 1.285c-.357.929-1.143 1.572-2.143 1.572H29.786V32.57H33l-.143.286zm-4.071-2.928v1.643H25.5v-1.858h3.286v.215zm0 2.857v1.643H25.5V32.57h3.286v.215zM24.5 29.929v1.643h-3.286v-1.858H24.5v.215zm0 2.857v1.643h-3.286V32.57H24.5v.215zm-4.286-2.857v1.643H17l.071-.215c.286-.857 1.215-1.571 2.143-1.571H20.143l.071.143zm0 2.857v1.643H19.286c-1 0-1.857-.572-2.143-1.572l-.072-.214h3.215l-.072.143zm10.5-4.072H19.357A3.353 3.353 0 0016 32.072c0 1.857 1.5 3.357 3.357 3.357h11.357c1.857 0 3.357-1.5 3.357-3.358 0-1.857-1.5-3.357-3.357-3.357zM18.643 20.214c-.714 0-1.214.572-1.214 1.215 0 .643.571 1.214 1.214 1.214.714 0 1.214-.572 1.214-1.214 0-.643-.571-1.215-1.214-1.215zM32.5 16.857L31.929 16 27.5 19l.571.857 4.429-3zM18.143 16l-.643.857 4.429 3L22.5 19l-4.357-3z" fill="#828F96"/><path d="M25 48.5C11.786 48.5 1.5 38.143 1.5 25S11.857 1.5 25 1.5 48.5 11.857 48.5 25 38.214 48.5 25 48.5zM25 0C11.214 0 0 11.214 0 25s11.214 25 25 25 25-11.214 25-25S38.786 0 25 0z" fill="#0C3165"/></svg><svg fill="none" viewBox="0 0 50 50" id="icon-res-05" xmlns="http://www.w3.org/2000/svg"><g clip-path="url(#oclip0_1_178)"><path d="M32.5 37.643c0 1-.358 1.857-1.072 2.571-.714.715-1.571 1.072-2.571 1.072-1 0-1.929-.357-2.572-1.072-.714-.714-1.071-1.571-1.071-2.571 0-1 .357-1.857 1.071-2.572C27 34.357 27.857 34 28.857 34s1.928.357 2.571 1.071c.643.715 1.072 1.572 1.072 2.572z" fill="#828F96"/><path d="M36.929 46.357c0 .714-.286 1.286-.714 1.643-.357.357-1.072.714-1.786.714h-31c-.714 0-1.286-.285-1.786-.714-.5-.357-.714-1.071-.714-1.643V3.643c0-.714.286-1.286.714-1.643.357-.357 1.072-.714 1.786-.714H24V10.5c0 1 .358 1.857 1.072 2.571.714.715 1.571 1.072 2.571 1.072h9.215l.071 32.214zM25.286 2.071l10.857 10.786h-8.428c-.715 0-1.286-.286-1.786-.714-.357-.357-.714-1.072-.714-1.643V2.071h.071zM38 12.93L25.143.214C25 .071 24.858 0 24.715 0H3.429C2.429 0 1.5.357.858 1.071.143 1.786-.214 2.643-.214 3.643v42.714c0 1 .357 1.857 1.072 2.572C1.572 49.643 2.429 50 3.429 50H34.5c1 0 1.929-.357 2.572-1.071.714-.715 1.071-1.572 1.071-2.572v-33c.072-.143 0-.286-.143-.428z" fill="#0C3165"/><path d="M25.572 31.286c0-.286-.286-.572-.572-.572H6.858c-.286 0-.572.286-.572.572 0 .285.286.571.572.571H25c.286.072.572-.214.572-.571zM6.143 24.643c0 .286.285.571.571.571h23.071c.286 0 .572-.285.572-.571s-.286-.571-.572-.571H6.857c-.429-.072-.714.214-.714.571zM6.143 18.357c0 .286.285.572.571.572H28c.285 0 .571-.286.571-.572s-.286-.571-.571-.571H6.857a.61.61 0 00-.714.571zM32.5 37.643c0 1-.357 1.857-1.071 2.571-.715.715-1.572 1.072-2.572 1.072s-1.928-.357-2.571-1.072c-.715-.714-1.072-1.571-1.072-2.571 0-1 .357-1.857 1.072-2.572C27 34.358 27.857 34 28.857 34c1 0 1.929.357 2.572 1.072.642.714 1.071 1.57 1.071 2.57zm-7-3.429c-.857.858-1.5 2.072-1.5 3.429 0 1.357.571 2.571 1.5 3.428.857.858 2.071 1.358 3.429 1.358 1.357 0 2.571-.572 3.428-1.358.857-.857 1.5-2.071 1.5-3.428a4.638 4.638 0 00-1.5-3.429c-.857-.857-2.071-1.357-3.428-1.357-1.429 0-2.572.5-3.429 1.357z" fill="#0C3165"/></g><defs><clipPath id="oclip0_1_178"><path fill="#fff" d="M0 0h50v50H0z"/></clipPath></defs></svg><svg fill="none" viewBox="0 0 24 50" id="icon-res-06" xmlns="http://www.w3.org/2000/svg"><path fill-rule="evenodd" clip-rule="evenodd" d="M12.32 3.011l-.29.169h-.058l-.171-.1L10.445.715h3.19L12.32 3.011zm-1.841-.7L9.489.556 9.806 0h4.466l.319.477-1.1 1.852 1.818-1.057.479.318V6.04l-.479.239-1.789-1.04.92 1.629c.149.042.286.13.39.285.16.16.32.398.32.636a.76.76 0 01-.167.501c2.266.795 4.15 2.49 5.11 4.746l-.398.476c-2.074 0-3.828 1.75-3.828 3.816 0 1.405.759 2.672 1.892 3.418h1.377c.32 0 .559.16.718.318.24.239.32.398.32.716v.08c0 .262-.11.417-.239.598a4.746 4.746 0 00-.08.117c-.24.238-.48.317-.798.317h-.96c-1.383 1.344-2.15 3.138-2.15 5.008 0 4.429 1.447 8.554 4.268 12.004h.038c.24 0 .478.08.638.318.16.159.319.397.319.636 0 .238-.08.477-.32.636-.055.111-.23.223-.384.28a2.683 2.683 0 002.697 2.422v.16l.32.317v1.431c0 .318-.16.556-.32.795-.075.075-.186.15-.307.209.106.055.207.121.308.188.239.239.319.477.319.795v.16c0 .317-.16.556-.32.794-.11.164-.295.253-.478.293v.343l-.239.318H1.514l-.319-.318v-.373c-.173-.06-.326-.161-.479-.263-.239-.238-.319-.477-.319-.795v-.159c0-.318.16-.556.32-.795.096-.096.192-.166.293-.215-.101-.054-.197-.118-.294-.182-.239-.239-.319-.477-.319-.795v-1.43l.32-.319h.079v-.159a2.683 2.683 0 002.695-2.4.69.69 0 01-.462-.302c-.16-.16-.319-.398-.319-.636 0-.239.08-.477.319-.636.16-.16.319-.318.638-.318h.039c2.82-3.45 4.268-7.575 4.268-12.004 0-1.87-.767-3.664-2.15-5.008h-.881c-.32 0-.479-.079-.718-.317-.239-.239-.319-.398-.319-.716v-.08c0-.263.11-.417.238-.598.026-.037.054-.076.081-.117.24-.238.399-.318.718-.318h1.021a3.99 3.99 0 002.01-3.497c0-1.808-1.343-3.373-3.067-3.736h-.602l-.052-.078a3.857 3.857 0 00-.108-.002v-.16l-.159-.237A8.892 8.892 0 019.002 8.33c-.125-.152-.231-.346-.231-.54 0-.24.08-.478.318-.637.116-.115.273-.23.441-.284l.944-1.59-1.783 1-.478-.318V1.59l.478-.318 1.787 1.039zm.662 1.174l-2.21-1.26v3.18l2.219-1.264.185-.312-.194-.344zm.605 1.082l-1.301 2.27h3.19L12.318 4.54l-.257-.15-.315.177zm3.325.838l-2.146-1.222-.26-.46.113-.191 2.293-1.306v3.18zm-.983 2.624h.185c.08 0 .08 0 .16-.08s.08-.08.08-.159c0-.08 0-.159-.08-.159-.08-.08-.16-.08-.16-.08H9.807c-.08 0-.16 0-.16.08-.079.08-.079.16-.079.16 0 .079 0 .079.08.158.08.08.16.08.16.08H10a8.891 8.891 0 014.086 0zm-4.408.714c-2.027.597-3.781 2.006-4.853 3.976h14.27c-1.023-1.924-2.822-3.366-4.948-3.975H9.68zM4.606 39.905h14.71c-2.672-3.481-4.086-7.586-4.086-12.004 0-1.828.638-3.577 1.834-5.008H6.857a7.762 7.762 0 011.834 5.008c0 4.418-1.414 8.523-4.085 12.004zM6.84 13.513H17.08c-1.08.819-1.849 2.168-1.849 3.657 0 1.431.558 2.703 1.595 3.577H7.096c1.037-.795 1.595-2.146 1.595-3.577 0-1.489-.77-2.838-1.85-3.657zm1.53 7.95H4.944c-.08 0-.16 0-.24.08-.08.079-.08.158-.08.238v.08c0 .079 0 .158.08.238.08.079.16.079.24.079h14.194c.08 0 .16 0 .24-.08.08-.079.08-.158.08-.238v-.08c0-.04-.02-.079-.04-.119a.28.28 0 01-.04-.119c-.16-.08-.24-.08-.32-.08H8.373zM1.914 47.774v1.113h20.175v-1.113H1.913zm-.718.16v-.001.796c-.16-.08-.16-.24-.16-.319v-.159c0-.08.08-.238.16-.318zm21.531 0v.794c.08-.08.16-.238.16-.318v-.159c0-.158-.08-.238-.16-.317zm-2.472-6.758H3.667c-.034 0-.053 0-.07-.006-.024-.008-.044-.027-.09-.073-.08-.08-.08-.08-.08-.159 0 0 0-.08.08-.159.08-.08.16-.08.16-.08h16.587s.08 0 .16.08.08.159.08.159c0 .08 0 .08-.08.159 0 .08-.08.08-.16.08zM2.869 44.197c.718-.556 1.196-1.43 1.356-2.385h15.63c.16.954.638 1.829 1.356 2.385H2.869zm-1.754 1.828v-1.112h21.77v1.113c0 .079 0 .158-.08.317-.079.08-.159.16-.318.16H1.594c-.08 0-.24-.08-.32-.16-.159-.079-.159-.238-.159-.318z" fill="#0C3165"/></svg><svg fill="none" viewBox="0 0 55 57" id="logo" xmlns="http://www.w3.org/2000/svg"><path d="M53.836 35.378h0c-2.9 10.756-11.223 18.585-21.873 20.6l.093.491-.093-.49c-2.112.399-3.629.565-4.732.511-1.096-.054-1.719-.323-2.12-.731h0c-.49-.497-.703-.999-.712-1.473-.01-.476.184-.999.657-1.54h0c.504-.577 1.116-.867 2.994-1.162 5.696-.895 10.076-3.164 14.231-7.365h0c1.218-1.231 2.052-2.156 2.758-3.145.707-.99 1.275-2.03 1.974-3.483 2.172-4.519 3.034-8.653 2.736-13.196l-.499.032.498-.032c-.793-12.076-9.315-21.58-20.625-23.76 2.226.173 4.403.5 5.695.913 3.458 1.106 7.54 3.323 9.945 5.392 4.208 3.618 7.651 9.15 9.109 14.639l.483-.129-.483.129c.42 1.584.635 4.218.628 6.894-.007 2.675-.235 5.313-.664 6.905zM8.815 46.524c-.386-.35-.77-.713-1.145-1.086-1.789-1.776-3.364-3.723-4.232-5.33C1.278 36.11.501 32.949.5 28.12c0-1.85.034-2.992.178-4.02.143-1.023.397-1.95.854-3.368 2.434-7.555 8.02-13.229 15.453-15.707 1.39-.463 2.293-.718 3.29-.861 1.004-.144 2.122-.176 3.948-.172 4.747.012 7.927.817 11.707 2.95 1.287.726 2.03 1.32 2.388 1.857.171.258.249.493.261.722.013.232-.038.493-.176.802h0c-.293.652-.698 1.01-1.15 1.15-.462.143-1.065.09-1.799-.27h0c-4.743-2.326-10.83-3.11-15.361-1.95-6.597 1.69-12.051 6.103-14.83 12.023-1.74 3.704-2.303 6.141-2.303 9.994 0 3.845.563 6.288 2.288 9.964.845 1.799 2.109 3.647 3.567 5.291z" stroke="#fff"/><path d="M18.475 39.914c.022.2.204 2.128-.24 2.713-.768 1.012-2.925.902-3.686.97-.15.011-.147.196-.147.196-.026.182.379.295.56.313.704.07 2.364.192 3.377-.099 1.307-.374 2-1.154 2-1.154s-1.008-2.468-1.043-2.586c-.034-.118-.585-1.014-.585-1.014l-.236.661zM32.18 40.608s-.627.242-1.501.766c-.875.523-1.971 1.495-1.971 1.495s.646-.905.836-1.48c.188-.578-.227-1.478-.585-1.95-.367-.48-.695-.64-2.184-.15l3.856-2.52c-.823 1.659-.01 3.629 1.55 3.839zm7.206-15.366c-.64.492-1.389.75-2.191.74a.52.52 0 01-.477-.69.523.523 0 01.529-.342c1.332.076 2.075-.908 2.412-1.538.858-1.609.668-3.473-.318-4.974.542.32 1.041.732 1.401 1.246.88 1.246.525 2.818-.151 4.091a4.429 4.429 0 01-1.206 1.467z" fill="#fff"/><path d="M43.136 24.823a2.043 2.043 0 01-1.085.288c-.431-.012-.762-.171-1.108-.404-.284-.189-.564-.247-.887-.027-.226.157-.378.423-.635.526-.007-.74.241-1.48.696-2.066.209-.27.476-.517.805-.591.144.178.117.435.148.663.058.402.336.763.71.92.255.105.65.15.894-.014.16-.108.196-.318.352-.427.49-.331 1.051.343.616.75a2.69 2.69 0 01-.506.382zm-10.895-7.518c-.19.142-.409.24-.618.122a.486.486 0 01-.121-.746c.559-.65 1.372-1.06 2.215-1.182.736-.104 1.332.095 1.729.235.397.14.875.593.875.593-.893-.173-1.7-.79-4.08.977zm-2.987 1.005c-.617.324-.017.01-.022.013-.955.552-2.288.882-3.07-.119-1.422-1.823 1.95-2.742 3.108-3.214 0 0-1.348-.38-2.5.185-.536.265-1.061.587-1.487 1.011-.467.468-.506 1.045-.89 1.542-.29.373-.758.564-1.216.673-.424.099-1.957.146-1.539.947a.48.48 0 00.603.226c.919-.37 2.311-.668 3.215-.11.415.256.722.678.839 1.15.058.231.124.532.361.563.183.025.338-.15.388-.328.05-.178.036-.37.086-.549.154-.558.623-.494 1.08-.579a4.703 4.703 0 001.503-.558c.011-.007-.865.391.03-.018.892-.41.126-1.156-.489-.835zm-13.952 6.841c-.705-.15-1.867-1.655-1.02-3.265 0 0-.712.445-1.044 1.27-.283.703.018 1.464.569 2.133.14.172.092.43-.107.53a4.891 4.891 0 00-1.768 1.506.484.484 0 00.798.544c.49-.693 1.367-1.419 2.26-1.673.905-.258 1.592-.35 2.833.367.211.12.477.053.583-.165a.413.413 0 00-.106-.493c-1.376-1.157-2.046-.55-2.998-.754zm4.634 4.032a.483.483 0 00-.689.014c-.554.588-1.557 1.09-2.241.904-1.351-1.005-1.927-.989-2.765-.821-.334.066-.474.467-.279.742a.468.468 0 00.488.187c.583-.139 1.468.24 2.119.773.59.482 1.088 1.279.893 2.166-.05.23.048.464.263.56l.01.004a.477.477 0 00.66-.333c.071-.316.115-.699.042-1.018-.08-.338-.253-.58-.136-.952.128-.417.421-.516.753-.707.341-.197.636-.531.891-.831.178-.196.183-.508-.01-.688zm-6.377 8.732a3.797 3.797 0 01-.291.153c-1.358.635-2.574.097-3.47-.745-.895-.842-1.276-2.101-1.276-2.101 2.133 2.79 3.878 2.182 4.336 1.97.866-.404 1.447-1.216 1.348-1.885-.156-1.057-1.688-1.297-2.5-1.525-.538-.15-1.004-.668-1.184-1.186-.094-.266-.124-.561-.014-.83.109-.263.521-.684.702-.215.058.145.036.307.054.46.12 1.093 1.947 1.115 2.69 1.545.607.347 1.105.9 1.208 1.608.15 1.008-.514 2.122-1.603 2.75z" fill="#fff"/><path d="M13.13 37.864c.243-.102.452-.275.598-.494.14-.207.23-.46.435-.6.1-.066.264-.079.306.031.015.04.291-.03.272.007-.356.667-1.566 1.824.846 3.757.193.153.26.412.142.626a.48.48 0 01-.7.161 5.08 5.08 0 01-1.466-1.648c-.352-.63-.604-1.215-1.325-1.496-.075-.027-.166-.075-.164-.155.002-.049.038-.089.074-.124.147-.145.304-.299.501-.364.088-.028 1.241-.05 1.24-.071l-.758.37zm27.246-10.352c-.619.264-1.19.65-1.617 1.172-.362.444-.504.998-1.105 1.189-.359.114-.759.073-1.107-.072-.733-.303-1.008-.908-1.21-1.618-.198-.705-.626-1.408-1.236-1.826a.754.754 0 00-.555-.142c-.194.038-.365.2-.378.397-.01.2.137.372.269.523.41.46.875.943 1.014 1.544.133.572.18 1.125.047 1.701-.25 1.095-1.023 1.976-1.973 2.246-.7.2-1.441.057-2.151-.404-.413-.444-.92-1.038-1.595-.744-.137.06-.265.16-.316.298-.05.14-.017.3.057.428.186.321.632.384.87.667.734.865.73 2.342.065 3.441-.514.852-2.448 2.281-5.201 1.796-.117-.021-.191-.15-.307-.176a.421.421 0 00-.227.02c-.307.106-.443.534-.257.8.17.24.492.315.779.38.747.172.634.48.69.77.016.073.012.15.044.218.086.188.326-.028.497-.146.17-.117.276-.308.42-.458.183-.188 1.39-.397 1.61-.468.639-.205.866-.262 1.355-.544.612-.353 1.313-.338 1.518-1.014.294-.963.564-1.637 1.017-2.155.224-.256.532-.497.871-.451.242.031.442.203.617.37.358.344.691.714 1.095 1.007.401.289.892.494 1.385.444.155-.015.315-.06.432-.168.116-.108.167-.29.093-.426-.05-.093-.147-.15-.24-.196-.37-.196-.764-.349-1.118-.569-.355-.22-.68-.527-.816-.922-.25-.73.403-1.353.852-1.833.43-.46.78-1.06 1.36-1.354.363-.184 1.346-.204 1.727-.06.077.03.137.09.19.156.435.534.309 1.315.147 1.982-.03.117-.039.275.073.326a.2.2 0 00.123.007c.362-.056.65-.357.79-.694.312-.739.09-1.568.275-2.337.154-.63.523-1.196.951-1.674 1.53-1.71 2.486-.281 3.304.356.819.637.987-.227.86-.459-.608-1.098-2.129-2.126-3.988-1.328z" fill="#fff"/><path d="M25.24 42.13a.481.481 0 01-.696-.372c-.058-.533.05-1.158.319-1.745.409-.891 1.05-1.38 1.86-1.584l.552.628c-.524.13-1.246.738-1.531 1.36-.206.45-.27.893-.24 1.215a.494.494 0 01-.264.499z" fill="#fff"/><path d="M35.895 18.815c-.258-.324-.724-.494-1.088-.299-.18.096-.322.301-.27.499.02.088.08.166.128.242.358.568.215 1.399-.313 1.812-.598.468-1.31.343-1.996.292-.653-.048-1.363.076-1.994.235-1.678.429-2.764 1.417-3.022 3.157-.096.647-.15 1.326-.487 1.886-.528.878-2.15 1.855-3.12 1.29-1.271-.736-3.251-4.114-.995-4.903.698-.243 1.479.033 1.757.412.176.24.146.556.042.847a.481.481 0 00.224.582c.262.143.591.016.691-.261.29-.822.08-1.39-.178-1.74-.82-1.118-2.552-1.015-3.636-.43-.24.127-.554.208-.771.04-.094-.073-.148-.18-.215-.275-.467-.68-1.642-1.033-2.425-1.073a.484.484 0 00-.499.523.49.49 0 00.469.444c.748.045 1.378.374 1.874.981.568.7.855 1.585.936 2.473.04.445.04.9-.012 1.347-.042.386-.22.73-.16 1.128.006.044.015.092.047.122.06.058.158.028.232-.012.212-.11.392-.274.527-.467.13.471.635.713 1.068.94.432.227.895.608.833 1.094-.003.02-.01.043-.01.066-.417.55-.766 1.171-.927 1.846-.277 1.165-.413 2.148-1.262 3.085a4.866 4.866 0 01-2.9 1.544c-.213.03-.436.05-.62.164-.183.114-.306.36-.204.55.053.096.15.156.242.218 1.031.69.52 1.818.633 2.87.102.984.419 1.945.914 2.802.54.936 1.255 1.432 3.1 1.953.835.233 1.706.155 2.393.008.215-.046.186-.361-.036-.37-1.63-.072-2.207-.637-2.97-1.12-1.834-1.164-2.349-4.256-1.454-6.493.347-.863 1.269-1.343 2.186-1.523.984-.192 1.818.131 2.76.336.255.057.566.098.742-.093.162-.172.126-.46-.013-.648-.138-.189-.356-.301-.563-.409a71.226 71.226 0 00-.688-.352c-.3-.153-.614-.315-.832-.577-.238-.283-.589-1.536 1.674-3.744.384-.374.87-.588 1.397-.721.71-.179 1.403.017 2.116.07.199.016.415.03.591-.065a.556.556 0 00.26-.646c-.11-.331-.486-.468-.785-.645-.992-.582-1.087-2.069-.683-3.04.364-.865 1.111-1.538 1.967-1.92 1.302-.584 2.988-.463 3.963.575.221.234.5.538.798.415.332-.136.26-.642.05-.934-.21-.292-.512-.583-.461-.94.024-.164.121-.305.219-.44.282-.382.597-.747.797-1.179.203-.43.277-.953.065-1.378-.03-.046-.065-.1-.106-.151z" fill="#fff"/><path d="M21.11 28.133c.211-.11.392-.275.527-.468.13.472.635.713 1.067.94.317.168.815.502.842 1.123 0 0 .253-.425.758-.951s1.074-.907 1.074-.907c-.482.159-1.259.284-1.65.058-1.27-.737-3.25-4.115-.995-4.903.698-.243 1.48.033 1.758.412.176.24.146.556.042.847a.48.48 0 00.224.582c.261.143.59.016.69-.261.29-.823.08-1.391-.177-1.741-.82-1.117-2.552-1.014-3.637-.43-.24.128-.554.209-.77.04-.094-.072-.148-.179-.215-.275-.467-.68-1.643-1.033-2.425-1.072a.484.484 0 00-.5.523.49.49 0 00.47.444c.748.044 1.377.374 1.873.981.568.7.855 1.585.936 2.473.041.445.04.9-.011 1.347-.042.385-.22.73-.161 1.128.007.044.016.091.048.121.06.059.157.028.232-.01z" fill="#fff"/></svg></svg>