<svg width="50" height="50" viewBox="0 0 50 50" fill="none" xmlns="http://www.w3.org/2000/svg">
<g clip-path="url(#clip0_1_128)">
<path fill-rule="evenodd" clip-rule="evenodd" d="M41.0718 32.6428C40.2147 32.7857 39.429 33.2143 39.0004 33.8571C38.5004 34.5 38.2861 35.3571 38.3576 36.2143C38.5004 37.0714 38.929 37.8571 39.5718 38.3571C40.2147 38.8571 41.0718 39.0714 41.929 39C42.7861 38.8571 43.5718 38.4285 44.0718 37.7857C44.5718 37.1428 44.7861 36.2857 44.7147 35.4285C44.5718 34.5714 44.1433 33.7857 43.5004 33.3571C42.7861 32.7857 41.929 32.5714 41.0718 32.6428ZM21.0718 33.4285C20.2147 33.4285 19.3576 33.7857 18.7861 34.3571C18.2147 34.9285 17.8576 35.7143 17.8576 36.6428C17.8576 37.5 18.2147 38.2857 18.7861 38.9285C19.3576 39.5 20.1433 39.8571 21.0718 39.8571C21.929 39.8571 22.7147 39.5 23.3576 38.9285C23.929 38.3571 24.2861 37.5714 24.2861 36.6428C24.2861 35.7857 23.929 35 23.3576 34.3571C22.7861 33.7857 22.0004 33.4285 21.0718 33.4285ZM7.50042 33.4285C8.35756 33.4285 9.14328 33.7857 9.78613 34.3571C10.3576 34.9285 10.7147 35.7143 10.7147 36.6428C10.7147 37.5 10.3576 38.2857 9.78613 38.9285C9.21471 39.5 8.42899 39.8571 7.50042 39.8571C6.64328 39.8571 5.78613 39.5 5.2147 38.9285C4.64328 38.3571 4.28613 37.5 4.28613 36.6428C4.28613 35.7857 4.64328 35 5.2147 34.3571C5.85756 33.7857 6.64328 33.4285 7.50042 33.4285Z" fill="white"/>
<path fill-rule="evenodd" clip-rule="evenodd" d="M12.7854 4.28574H2.28544C2.07115 4.28574 1.78544 4.35717 1.64258 4.57145C1.49972 4.71431 1.35686 4.9286 1.35686 5.21431V45.4286C1.35686 45.7143 1.42829 45.9286 1.64258 46.0715C1.78544 46.2143 2.07115 46.3572 2.28544 46.3572H12.7854C13.0712 46.3572 13.2854 46.2857 13.4283 46.0715C13.5711 45.9286 13.714 45.6429 13.714 45.4286V5.21431C13.714 4.9286 13.6426 4.71431 13.4283 4.57145C13.2854 4.35717 13.0712 4.28574 12.7854 4.28574ZM41.0712 32.6429C40.214 32.7857 39.4283 33.2143 38.9997 33.8572C38.4997 34.5 38.2854 35.3572 38.3569 36.2143C38.4997 37.0715 38.9283 37.8572 39.5712 38.3572C40.214 38.8572 41.0712 39.0715 41.9283 39C42.7854 38.8572 43.5712 38.4286 44.0712 37.7857C44.5712 37.1429 44.7854 36.2857 44.714 35.4286C44.5712 34.5715 44.1426 33.7857 43.4997 33.3572C42.7854 32.7857 41.9283 32.5715 41.0712 32.6429ZM37.9997 33.1429C38.714 32.2143 39.714 31.5715 40.9283 31.4286C42.1426 31.2857 43.2854 31.5715 44.214 32.2857C45.1426 33 45.7854 34 45.9283 35.2143C46.0712 36.4286 45.7854 37.5715 45.0712 38.5C44.3569 39.4286 43.3569 40.0715 42.1426 40.2143C40.9283 40.3572 39.7854 40.0715 38.8569 39.3572C37.9283 38.6429 37.2854 37.6429 37.1426 36.4286C36.9997 35.2143 37.2854 34.0715 37.9997 33.1429ZM35.2854 17.4286C34.9283 17.5 34.6426 17.2143 34.5712 16.9286C34.4997 16.5715 34.7854 16.2857 35.0712 16.2143L42.3569 15.2143C42.714 15.1429 42.9997 15.4286 43.0712 15.7143C43.1426 16.0715 42.8569 16.3572 42.5712 16.4286L35.2854 17.4286ZM41.6426 9.4286C41.9997 9.35717 42.2854 9.64288 42.3569 9.9286C42.4283 10.2857 42.1426 10.5715 41.8569 10.6429L34.5712 11.6429C34.214 11.7143 33.9283 11.4286 33.8569 11.1429C33.7854 10.7857 34.0712 10.5 34.3569 10.4286L41.6426 9.4286ZM42.3569 3.00003C42.6426 3.00003 42.8569 3.07145 43.0712 3.21431C43.2854 3.35717 43.3569 3.57145 43.4283 3.85717L48.9283 43.7143C48.9283 44 48.8569 44.2143 48.714 44.4286C48.5712 44.6429 48.3569 44.7857 48.1426 44.7857L37.714 46.2143C37.4283 46.2143 37.214 46.1429 36.9997 46C36.7854 45.8572 36.714 45.6429 36.6426 45.3572L31.1426 5.50003C31.1426 5.21431 31.214 5.00003 31.3569 4.78574C31.4997 4.57145 31.714 4.50003 31.9283 4.4286L42.3569 3.00003ZM31.8569 3.21431L42.1426 1.78574H42.214C42.7854 1.71431 43.3569 1.85717 43.7854 2.21431C44.214 2.57145 44.4997 3.00003 44.6426 3.57145V3.64288L50.0712 43.4286V43.5C50.1426 44.0715 49.9997 44.6429 49.6426 45.0715C49.2854 45.5 48.8569 45.7857 48.2854 45.9286H48.214L37.9283 47.3572H37.8569C37.2854 47.4286 36.714 47.2857 36.2854 46.9286C35.8569 46.5715 35.5712 46.1429 35.4283 45.5715V45.5L29.9283 5.71431V5.64288C29.8569 5.07145 29.9997 4.50003 30.3569 4.07145C30.714 3.64288 31.1426 3.35717 31.714 3.21431C31.7854 3.21431 31.7854 3.21431 31.8569 3.21431ZM21.0712 33.4286C20.214 33.4286 19.3569 33.7857 18.7854 34.3572C18.214 34.9286 17.8569 35.7143 17.8569 36.6429C17.8569 37.5 18.214 38.2857 18.7854 38.9286C19.3569 39.5 20.1426 39.8572 21.0712 39.8572C21.9283 39.8572 22.714 39.5 23.3569 38.9286C23.9283 38.3572 24.2854 37.5715 24.2854 36.6429C24.2854 35.7857 23.9283 35 23.3569 34.3572C22.7854 33.7857 21.9997 33.4286 21.0712 33.4286ZM17.9997 33.5C18.7854 32.7143 19.9283 32.2143 21.1426 32.2143C22.3569 32.2143 23.4997 32.7143 24.2854 33.5C25.0712 34.2857 25.5712 35.4286 25.5712 36.6429C25.5712 37.8572 25.0712 39 24.2854 39.7857C23.4997 40.5715 22.3569 41.0715 21.1426 41.0715C19.9283 41.0715 18.7854 40.5715 17.9997 39.7857C17.214 39 16.714 37.8572 16.714 36.6429C16.6426 35.4286 17.1426 34.2857 17.9997 33.5ZM17.4283 17.5715C17.0712 17.5715 16.7854 17.2857 16.7854 16.9286C16.7854 16.5715 17.0712 16.2857 17.4283 16.2857H24.7854C25.1426 16.2857 25.4283 16.5715 25.4283 16.9286C25.4283 17.2857 25.1426 17.5715 24.7854 17.5715H17.4283ZM24.7854 10.5C25.1426 10.5 25.4283 10.7857 25.4283 11.1429C25.4283 11.5 25.1426 11.7857 24.7854 11.7857H17.4283C17.0712 11.7857 16.7854 11.5 16.7854 11.1429C16.7854 10.7857 17.0712 10.5 17.4283 10.5H24.7854ZM26.4283 4.28574C26.714 4.28574 26.9283 4.35717 27.0712 4.57145C27.214 4.71431 27.3569 5.00003 27.3569 5.21431V45.4286C27.3569 45.7143 27.2854 45.9286 27.0712 46.0715C26.9283 46.2143 26.6426 46.3572 26.4283 46.3572H15.9283C15.6426 46.3572 15.4283 46.2857 15.2854 46.0715C15.1426 45.8572 14.9997 45.7143 14.9997 45.4286V5.21431C14.9997 5.00003 15.0712 4.71431 15.214 4.57145C15.4283 4.35717 15.6426 4.28574 15.9283 4.28574H26.4283ZM15.9283 3.00003H26.4283C26.9997 3.00003 27.5712 3.21431 27.9283 3.64288C28.2854 4.07145 28.5712 4.57145 28.5712 5.21431V45.4286C28.5712 46 28.3569 46.5715 27.9283 46.9286C27.5712 47.2857 26.9997 47.5715 26.4283 47.5715H15.9283C15.3569 47.5715 14.7854 47.3572 14.4283 46.9286C14.0712 47.2857 13.4997 47.5715 12.9283 47.5715H2.28544C1.71401 47.5715 1.14258 47.3572 0.785435 46.9286C0.428292 46.5715 0.142578 46 0.142578 45.4286V5.21431C0.142578 4.64288 0.356864 4.14288 0.714007 3.71431C0.714007 3.71431 0.714007 3.71431 0.785435 3.64288C1.14258 3.28574 1.71401 3.00003 2.28544 3.00003H12.7854C13.3569 3.00003 13.9283 3.21431 14.2854 3.64288C14.7854 3.28574 15.2854 3.00003 15.9283 3.00003ZM7.49972 33.4286C8.35686 33.4286 9.14258 33.7857 9.78544 34.3572C10.3569 34.9286 10.714 35.7143 10.714 36.6429C10.714 37.5 10.3569 38.2857 9.78544 38.9286C9.21401 39.5 8.42829 39.8572 7.49972 39.8572C6.64258 39.8572 5.78544 39.5 5.21401 38.9286C4.64258 38.3572 4.28544 37.5 4.28544 36.6429C4.28544 35.7857 4.64258 35 5.21401 34.3572C5.85686 33.7857 6.64258 33.4286 7.49972 33.4286ZM4.35686 33.5C5.14258 32.7143 6.28544 32.2143 7.49972 32.2143C8.71401 32.2143 9.85686 32.7143 10.6426 33.5C11.4283 34.2857 11.9283 35.4286 11.9283 36.6429C11.9283 37.8572 11.4283 39 10.6426 39.7857C9.85686 40.5715 8.71401 41.0715 7.49972 41.0715C6.28544 41.0715 5.14258 40.5715 4.35686 39.7857C3.57115 39 3.07115 37.8572 3.07115 36.6429C3.07115 35.4286 3.57115 34.2857 4.35686 33.5ZM3.85686 17.5715C3.49972 17.5715 3.21401 17.2857 3.21401 16.9286C3.21401 16.5715 3.49972 16.2857 3.85686 16.2857H11.214C11.5712 16.2857 11.8569 16.5715 11.8569 16.9286C11.8569 17.2857 11.5712 17.5715 11.214 17.5715H3.85686ZM11.1426 10.5C11.4997 10.5 11.7854 10.7857 11.7854 11.1429C11.7854 11.5 11.4997 11.7857 11.1426 11.7857H3.85686C3.49972 11.7857 3.21401 11.5 3.21401 11.1429C3.21401 10.7857 3.49972 10.5 3.85686 10.5H11.1426Z" fill="#3C6EB2"/>
</g>
<defs>
<clipPath id="clip0_1_128">
<rect width="50" height="50" fill="white"/>
</clipPath>
</defs>
</svg>
