<svg width="52" height="32" viewBox="0 0 52 32" fill="none" xmlns="http://www.w3.org/2000/svg">
<path d="M41 1H6C3.23858 1 1 3.23858 1 6V26C1 28.7614 3.23858 31 6 31H41C43.7614 31 46 28.7614 46 26V6C46 3.23858 43.7614 1 41 1Z" stroke="#0C3165" stroke-width="2" stroke-linecap="round" stroke-linejoin="round"/>
<path d="M47 12H49.3478V10H47V12ZM49.3478 12C49.5974 12 49.7985 12.0772 49.9127 12.1636L51.1194 10.5686C50.614 10.1862 49.9746 10 49.3478 10V12ZM49.9127 12.1636C49.9666 12.2044 49.9893 12.2377 49.9971 12.2519C50.004 12.2645 50 12.2627 50 12.25H52C52 11.5489 51.6305 10.9553 51.1194 10.5686L49.9127 12.1636ZM50 12.25V19.75H52V12.25H50ZM50 19.75C50 19.7373 50.004 19.7355 49.9971 19.7481C49.9893 19.7623 49.9666 19.7956 49.9127 19.8364L51.1194 21.4314C51.6305 21.0447 52 20.4511 52 19.75H50ZM49.9127 19.8364C49.7985 19.9228 49.5974 20 49.3478 20V22C49.9746 22 50.614 21.8138 51.1194 21.4314L49.9127 19.8364ZM49.3478 20H47V22H49.3478V20Z" fill="#0C3165"/>
<path d="M13 11V21M23.1333 11V21M33.2667 11V21" stroke="#D63028" stroke-width="5" stroke-linecap="round" stroke-linejoin="round"/>
</svg>
