<svg width="24" height="50" viewBox="0 0 24 50" fill="none" xmlns="http://www.w3.org/2000/svg">
<path fill-rule="evenodd" clip-rule="evenodd" d="M12.3191 3.01109L12.0292 3.17969H11.9724L11.8007 3.07989L10.4453 0.715421H13.6351L12.3191 3.01109ZM10.4785 2.31102L9.48837 0.556439L9.80735 0H14.2731L14.592 0.476948L13.4926 2.32874L15.3102 1.27185L15.7886 1.58982V6.04133L15.3102 6.2798L13.5211 5.23949L14.4405 6.8688C14.5898 6.91126 14.7274 6.99911 14.8311 7.15427C14.9906 7.31325 15.1501 7.55172 15.1501 7.7902C15.1501 7.96819 15.1057 8.14618 14.9837 8.29112C17.2495 9.08643 19.1334 10.7817 20.0948 13.0366L19.6961 13.5135L19.6957 13.5135C17.6224 13.5135 15.868 15.2623 15.868 17.3291C15.868 18.734 16.6269 20.0013 17.7597 20.7472H19.1375C19.4565 20.7472 19.6957 20.9062 19.8552 21.0652C20.0944 21.3036 20.1742 21.4626 20.1742 21.7806V21.8601C20.1742 22.1235 20.0647 22.2778 19.9365 22.4586C19.9099 22.496 19.8825 22.5346 19.8552 22.5755C19.6159 22.814 19.3767 22.8935 19.0577 22.8935H18.0978C16.7147 24.2366 15.948 26.0308 15.948 27.9015C15.948 32.33 17.3954 36.4547 20.2157 39.9047H20.2539C20.4931 39.9047 20.7324 39.9842 20.8919 40.2226C21.0514 40.3816 21.2108 40.6201 21.2108 40.8586C21.2108 41.097 21.1311 41.3355 20.8919 41.4945C20.8357 41.6064 20.661 41.7184 20.5068 41.7748C20.6442 43.1498 21.7841 44.1972 23.2042 44.1972V44.3562H23.2045L23.5235 44.6742V46.105C23.5235 46.423 23.364 46.6614 23.2045 46.8999C23.1291 46.9751 23.0181 47.0502 22.8967 47.1086C23.0032 47.1636 23.1039 47.2305 23.2045 47.2973C23.4437 47.5358 23.5235 47.7743 23.5235 48.0923V48.2512C23.5235 48.5692 23.364 48.8077 23.2045 49.0461C23.0947 49.2103 22.9093 49.2991 22.7264 49.3385V49.6821L22.4872 50H1.51429L1.19531 49.6821V49.3092C1.02186 49.2491 0.869151 49.1476 0.716441 49.0461C0.477207 48.8077 0.397461 48.5692 0.397461 48.2512V48.0923C0.397461 47.7743 0.556952 47.5358 0.716441 47.2973C0.812715 47.2014 0.90899 47.1312 1.01046 47.0815C0.908994 47.0279 0.812724 46.9639 0.716454 46.8999L0.716441 46.8999C0.477207 46.6614 0.397461 46.423 0.397461 46.105V44.6742L0.716441 44.3562H0.795898V44.1972C2.20843 44.1972 3.34372 43.1609 3.49103 41.7967C3.31451 41.7635 3.14915 41.6741 3.02903 41.4945C2.86954 41.3355 2.71005 41.097 2.71005 40.8586C2.71005 40.6201 2.7898 40.3816 3.02903 40.2226C3.18852 40.0636 3.34801 39.9047 3.66699 39.9047H3.70585C6.52615 36.4547 7.97352 32.33 7.97352 27.9015C7.97352 26.0308 7.20681 24.2366 5.82374 22.8935H4.9429C4.62392 22.8935 4.46443 22.814 4.2252 22.5755C3.98596 22.337 3.90622 22.178 3.90622 21.8601V21.7806C3.90622 21.5172 4.01567 21.3629 4.14391 21.1821L4.14394 21.1821C4.17049 21.1446 4.19784 21.1061 4.2252 21.0652C4.46443 20.8267 4.62392 20.7472 4.9429 20.7472H5.96405C7.23205 20.014 7.97323 18.7057 7.97323 17.2496C7.97323 15.4417 6.63077 13.8771 4.90666 13.5135H4.30531L4.2532 13.4356C4.2174 13.4346 4.18149 13.434 4.14548 13.434V13.2745L3.98633 13.0366C4.98771 10.8184 6.80412 9.14177 9.00234 8.33067C8.87665 8.17929 8.77051 7.98474 8.77051 7.7902C8.77051 7.55172 8.85025 7.31325 9.08949 7.15427C9.20472 7.0394 9.36158 6.92454 9.52999 6.86963L10.4735 5.28055L8.69136 6.2798L8.21289 5.96183V1.58982L8.69136 1.27185L10.4785 2.31102ZM11.1408 3.48469L8.93059 2.22575V5.4054L11.1499 4.14126L11.3352 3.8292L11.1408 3.48469ZM11.7456 4.56724L10.4449 6.83629H13.6347L12.3184 4.54016L12.0609 4.39044L11.7456 4.56724ZM15.0709 5.4054L12.9249 4.183L12.6651 3.72251L12.7784 3.53159L15.0709 2.22575V5.4054ZM14.0875 8.02867H14.2729C14.3526 8.02867 14.3526 8.02867 14.4324 7.94918C14.5121 7.86969 14.5121 7.86969 14.5121 7.7902C14.5121 7.71071 14.5121 7.63122 14.4324 7.63122C14.3526 7.55172 14.2729 7.55172 14.2729 7.55172H9.80719C9.72745 7.55172 9.6477 7.55172 9.6477 7.63122C9.56796 7.71071 9.56796 7.7902 9.56796 7.7902C9.56796 7.86969 9.56796 7.86969 9.6477 7.94918C9.72745 8.02867 9.80719 8.02867 9.80719 8.02867H10.0012C10.6584 7.87218 11.3416 7.79016 12.0406 7.79016C12.7395 7.79016 13.4258 7.87218 14.0875 8.02867ZM9.68 8.74347C7.6534 9.34026 5.89879 10.7492 4.82652 12.7186H19.0962C18.0739 10.795 16.2752 9.3528 14.1495 8.74409H9.72745C9.71123 8.74409 9.69542 8.74389 9.68 8.74347ZM4.6058 39.9047H19.3157C16.6441 36.424 15.2303 32.3193 15.2303 27.9015C15.2303 26.0732 15.8683 24.3244 17.0644 22.8935H6.85709C8.05327 24.3244 8.69123 26.0732 8.69123 27.9015C8.69123 32.3193 7.27745 36.424 4.6058 39.9047ZM6.8414 13.5135H17.0795C15.9993 14.3318 15.23 15.6813 15.23 17.1701C15.23 18.601 15.7882 19.8728 16.8248 20.7472H7.0961C8.13274 19.9523 8.69093 18.601 8.69093 17.1701C8.69093 15.6813 7.92159 14.3318 6.8414 13.5135ZM8.37195 21.4627H5.97961L5.97959 21.4626H4.9429C4.86316 21.4626 4.78341 21.4626 4.70367 21.5421C4.62392 21.6216 4.62392 21.7011 4.62392 21.7806V21.8601C4.62392 21.9396 4.62392 22.0191 4.70367 22.0985C4.78341 22.178 4.86316 22.178 4.9429 22.178H19.1375C19.2172 22.178 19.297 22.178 19.3767 22.0985C19.4565 22.0191 19.4565 21.9396 19.4565 21.8601V21.7806C19.4565 21.7408 19.4365 21.7011 19.4166 21.6613C19.3966 21.6216 19.3767 21.5819 19.3767 21.5421C19.2172 21.4626 19.1375 21.4626 19.0577 21.4626H17.9413L17.9413 21.4627H8.37195ZM1.91302 47.7743V48.8872H22.0885V47.7743H1.91302ZM1.19491 47.9333L1.19531 47.9329V48.7286L1.19491 48.7282C1.03542 48.6487 1.03542 48.4897 1.03542 48.4102V48.2512C1.03542 48.1717 1.11516 48.0128 1.19491 47.9333ZM22.7264 47.9337V48.7278C22.806 48.6482 22.8855 48.4896 22.8855 48.4102V48.2512C22.8855 48.0925 22.806 48.013 22.7264 47.9337ZM20.2539 41.1765L20.1739 41.1765H3.8262L3.66699 41.1765C3.63308 41.1765 3.61359 41.1765 3.59625 41.1704C3.57282 41.1622 3.55333 41.1427 3.5075 41.097C3.42776 41.0175 3.42776 41.0175 3.42776 40.938C3.42776 40.938 3.42776 40.8586 3.5075 40.7791C3.58725 40.6996 3.66699 40.6996 3.66699 40.6996H20.2539C20.2539 40.6996 20.3337 40.6996 20.4134 40.7791C20.4931 40.8586 20.4931 40.938 20.4931 40.938C20.4931 41.0175 20.4931 41.0175 20.4134 41.097C20.4134 41.1765 20.3337 41.1765 20.2539 41.1765ZM2.86926 44.1972C3.58697 43.6407 4.06544 42.7663 4.22493 41.8124H19.8549C20.0144 42.7663 20.4929 43.6407 21.2106 44.1972H2.86926ZM1.11517 46.0255V44.9126H22.8855V46.0255C22.8855 46.105 22.8855 46.1845 22.8058 46.3435C22.726 46.423 22.6463 46.5025 22.4868 46.5025H1.59363C1.51389 46.5025 1.3544 46.423 1.27465 46.3435C1.11516 46.264 1.11517 46.105 1.11517 46.0255Z" fill="#0C3165"/>
</svg>
