<svg width="50" height="50" viewBox="0 0 50 50" fill="none" xmlns="http://www.w3.org/2000/svg">
<path d="M41.453 41.453C37.037 45.8689 31.1966 48.2194 24.9288 48.2194C18.661 48.2194 12.8205 45.7977 8.40456 41.453C3.9886 37.037 1.56695 31.2678 1.56695 25C1.56695 18.7322 4.05983 12.8917 8.33333 8.47578C12.8205 4.05983 18.5897 1.7094 24.8576 1.7094C31.1254 1.7094 36.9658 4.05983 41.3818 8.47578C45.7977 12.8917 48.1482 18.7322 48.1482 25C48.2906 31.1254 45.8689 37.037 41.453 41.453ZM42.5926 7.33618C37.8917 2.5641 31.6239 0 25 0C18.3048 0 12.037 2.5641 7.33618 7.33618C2.63533 11.9658 0 18.2336 0 25C0 31.7664 2.5641 37.8917 7.33618 42.6638C12.037 47.3647 18.3048 50 25 50C31.6952 50 37.963 47.4359 42.6638 42.6638C47.3647 37.963 50 31.6952 50 25C50 18.3048 47.2935 11.9658 42.5926 7.33618Z" fill="#0C3165"/>
<path d="M32.1226 15.5984C30.1283 15.5984 28.4189 17.3078 28.4189 19.3021C28.4189 19.6582 28.7038 19.9431 29.06 19.9431C29.4161 19.9431 29.701 19.6582 29.701 19.3021C29.701 17.9488 30.7694 16.8092 32.1939 16.8092C33.5471 16.8092 34.6868 17.8776 34.6868 19.3021C34.6868 19.6582 34.9716 19.9431 35.3278 19.9431C35.6839 19.9431 35.9688 19.6582 35.9688 19.3021C35.8264 17.3078 34.1169 15.5984 32.1226 15.5984Z" fill="#828F96"/>
<path d="M22.1506 19.3021C22.1506 17.3078 20.4412 15.5984 18.4469 15.5984C16.4526 15.5984 14.7432 17.3078 14.7432 19.3021C14.7432 19.6582 15.0281 19.9431 15.3842 19.9431C15.7403 19.9431 16.0252 19.6582 16.0252 19.3021C16.0252 17.9488 17.0936 16.8092 18.5181 16.8092C19.8714 16.8092 21.011 17.8776 21.011 19.3021C21.011 19.6582 21.2959 19.9431 21.652 19.9431C21.8657 19.9431 22.1506 19.6582 22.1506 19.3021Z" fill="#828F96"/>
<path d="M35.3274 28.9174C35.2562 28.8462 35.0425 28.8462 34.9713 28.8462C34.6152 28.8462 34.3303 28.9886 34.1878 29.3448C32.6921 32.906 29.0596 35.1852 24.9998 35.1852C20.8688 35.1852 17.2363 32.906 15.8118 29.3448C15.6693 28.9886 15.3844 28.8462 15.0283 28.8462C14.9571 28.8462 14.7434 28.8462 14.6722 28.9174C14.5297 28.9886 14.3161 29.2023 14.2448 29.3448C14.1736 29.4872 14.1736 29.7721 14.2448 29.9858C16.0255 34.1168 20.2277 36.8946 25.071 36.8946C29.8431 36.8946 33.9742 34.2593 35.826 29.9858C35.8972 29.8433 35.8972 29.5584 35.826 29.3448C35.6836 29.2023 35.4699 29.0599 35.3274 28.9174Z" fill="#828F96"/>
</svg>
