<svg width="50" height="50" viewBox="0 0 50 50" fill="none" xmlns="http://www.w3.org/2000/svg">
<path fill-rule="evenodd" clip-rule="evenodd" d="M19.9288 30.5C19.7146 30.7143 19.3574 30.6429 19.2146 30.4286C19.0003 30.2143 19.0717 29.8572 19.286 29.7143L33.5003 17.5714C33.7146 17.3572 34.0717 17.4286 34.2146 17.6429C34.4288 17.8572 34.3574 18.2143 34.1431 18.3572L19.9288 30.5ZM9.42885 27.3572C9.71457 27.3572 9.92885 27.5714 9.92885 27.8572C9.92885 28.1429 9.71457 28.3572 9.42885 28.3572H5.85742C5.57171 28.3572 5.35742 28.1429 5.35742 27.8572C5.35742 27.5714 5.57171 27.3572 5.85742 27.3572H9.42885ZM21.6431 40.5714C21.6431 40.2857 21.8574 40.0714 22.1431 40.0714C22.4289 40.0714 22.6431 40.2857 22.6431 40.5714V44.1429C22.6431 44.4286 22.4289 44.6429 22.1431 44.6429C21.8574 44.6429 21.6431 44.4286 21.6431 44.1429V40.5714ZM34.8574 28.4286H38.4288C38.7146 28.4286 38.9288 28.2143 38.9288 27.9286C38.9288 27.6429 38.7146 27.4286 38.4288 27.4286H34.8574C34.5717 27.4286 34.3574 27.6429 34.3574 27.9286C34.286 28.2143 34.5717 28.4286 34.8574 28.4286ZM22.6431 15.2143C22.6431 15.5 22.4289 15.7143 22.1431 15.7143C21.8574 15.7143 21.6431 15.5 21.6431 15.2143V11.6429C21.6431 11.3572 21.8574 11.1429 22.1431 11.1429C22.4289 11.1429 22.6431 11.3572 22.6431 11.6429V15.2143ZM37.4288 11.8572C38.0717 12.4286 38.5717 13 39.1431 13.6429C39.6431 14.2857 40.1431 14.9286 40.6431 15.6429L42.4288 14.1429L39.286 10.3572L37.4288 11.8572ZM15.7146 3.07144H19.1431H25.0717H28.5717V1.07144H15.7146V3.07144Z" fill="white"/>
<path fill-rule="evenodd" clip-rule="evenodd" d="M24.5714 5.92857V4.14286H19.6429V5.92857C20.4286 5.85714 21.2857 5.78571 22.0714 5.78571C23 5.78571 23.7857 5.85714 24.5714 5.92857ZM6.5 12.2857C8.5 10.2857 11 8.64286 13.7143 7.5C15.2857 6.85714 16.9286 6.35714 18.6429 6.07143V4.14286H15.2143C14.9286 4.14286 14.7143 3.92857 14.7143 3.64286V0.5C14.7143 0.214286 14.9286 0 15.2143 0H29.1429C29.4286 0 29.6429 0.214286 29.6429 0.5V3.57143C29.6429 3.85714 29.4286 4.07143 29.1429 4.07143H25.7143V6C27.4286 6.28571 29.0714 6.78571 30.6429 7.42857C32.8571 8.35714 34.8571 9.57143 36.6429 11.1429L38.9286 9.21429C39.1429 9 39.5 9.07143 39.6429 9.28571L43.5 13.8571C43.7143 14.0714 43.6429 14.4286 43.4286 14.5714L41.1429 16.5C41.7143 17.4286 42.2143 18.4286 42.5714 19.4286C43.6429 22.0714 44.2857 24.9286 44.2857 27.8571C44.2857 30.8571 43.7143 33.7143 42.6429 36.2857C41.5 39 39.8571 41.4286 37.8571 43.5C35.7857 45.5714 33.3571 47.2143 30.6429 48.2857C28 49.4286 25.1429 50 22.1429 50C19.1429 50 16.2857 49.4286 13.7143 48.3571C11 47.2143 8.57143 45.5714 6.5 43.5714C4.42857 41.5714 2.78571 39.0714 1.71429 36.3571C0.642857 33.7143 0 30.8571 0 27.8571C0 24.8571 0.571429 22 1.64286 19.4286C2.85714 16.7143 4.5 14.2857 6.5 12.2857ZM14.0714 8.42857C11.5 9.5 9.14286 11.0714 7.21429 13C5.28571 14.9286 3.71429 17.2857 2.64286 19.8571C1.64286 22.2857 1.07143 25 1.07143 27.8571C1.07143 30.7143 1.64286 33.4286 2.64286 35.9286C3.71429 38.5 5.28571 40.8571 7.21429 42.7857C9.14286 44.7143 11.5 46.2857 14.0714 47.3571C16.5714 48.3571 19.2857 48.9286 22.1429 48.9286C25 48.9286 27.7143 48.3571 30.2143 47.3571C32.7857 46.2857 35.1429 44.7143 37.0714 42.7857C39 40.8571 40.5714 38.5 41.6429 35.9286C42.6429 33.4286 43.2143 30.7143 43.2143 27.8571C43.2143 25 42.6429 22.2857 41.6429 19.7857C40.5714 17.2143 39 14.8571 37.0714 12.9286C36.8571 12.7143 36.5714 12.4286 36.2857 12.2143C36.2857 12.2143 36.2857 12.2143 36.2143 12.1429C34.4286 10.5714 32.4286 9.28571 30.2143 8.35714C28.6429 7.71429 26.9286 7.21429 25.2143 7C25.1429 7 25.1429 7 25.0714 7C24.1429 6.85714 23.1429 6.78571 22.2143 6.78571H22.1429C21.5714 6.78571 21.0714 6.78571 20.5714 6.85714H20.5H20.4286C20.0714 6.85714 19.6429 6.92857 19.2857 7C19.2143 7 19.2143 7 19.1429 7H19.0714C17.3571 7.28571 15.6429 7.78571 14.0714 8.42857ZM34.5714 15.4286C33.7857 14.6429 32.8571 13.8571 31.9286 13.2143C31 12.5714 30 12 28.9286 11.5714C27.8571 11.1429 26.7857 10.7857 25.6429 10.5714C24.5 10.3571 23.3571 10.2143 22.2143 10.2143C21.0714 10.2143 19.8571 10.3571 18.7857 10.5714C17.6429 10.7857 16.5714 11.1429 15.5 11.5714C14.4286 12 13.4286 12.5714 12.5 13.2143C11.5714 13.8571 10.6429 14.5714 9.85714 15.4286C9.07143 16.2143 8.28571 17.1429 7.64286 18.0714C7 19 6.42857 20.0714 6 21.0714C5.57143 22.1429 5.21429 23.2143 5 24.3571C4.78571 25.5 4.64286 26.6429 4.64286 27.7857C4.64286 28.9286 4.78571 30.1429 5 31.2143C5.21429 32.3571 5.57143 33.4286 6 34.5C6.42857 35.5714 7 36.5714 7.64286 37.5C8.28571 38.4286 9 39.3571 9.85714 40.1429C10.6429 40.9286 11.5714 41.6429 12.5 42.2857C13.4286 42.9286 14.5 43.5 15.5 43.9286C16.5714 44.3571 17.6429 44.7143 18.7857 44.9286C19.9286 45.1429 21.0714 45.2857 22.2143 45.2857C23.4286 45.2857 24.5714 45.1429 25.6429 44.9286C26.7857 44.7143 27.8571 44.3571 28.9286 43.9286C30 43.5 31 42.9286 31.9286 42.2857C32.8571 41.6429 33.7857 40.9286 34.5714 40.0714C35.3571 39.2857 36.0714 38.3571 36.7143 37.4286C37.3571 36.5 37.9286 35.5 38.3571 34.4286C38.7857 33.3571 39.1429 32.2857 39.3571 31.1429C39.5714 30 39.7143 28.8571 39.7143 27.7143C39.7143 26.5 39.5714 25.3571 39.3571 24.2857C39.1429 23.1429 38.7857 22.0714 38.3571 21C37.9286 19.9286 37.3571 18.9286 36.7143 18C36.1429 17.1429 35.3571 16.2857 34.5714 15.4286ZM32.5 12.4286C31.5 11.7857 30.4286 11.1429 29.2857 10.7143C28.2143 10.2857 27 9.92857 25.8571 9.64286C24.5714 9.42857 23.3571 9.28571 22.1429 9.28571C20.9286 9.28571 19.7143 9.42857 18.5 9.64286C17.2857 9.85714 16.1429 10.2143 15 10.7143C13.8571 11.2143 12.7857 11.7857 11.7857 12.4286C10.7857 13.1429 9.78571 13.8571 8.92857 14.7143C8.07143 15.5714 7.28571 16.5 6.64286 17.5714C6 18.5714 5.35714 19.6429 4.92857 20.7857C4.5 21.9286 4.14286 23.0714 3.85714 24.2857C3.64286 25.4286 3.5 26.6429 3.5 27.9286C3.5 29.1429 3.64286 30.3571 3.85714 31.5714C4.07143 32.7857 4.42857 33.9286 4.92857 35.0714C5.42857 36.2143 6 37.2857 6.64286 38.2857C7.35714 39.2857 8.07143 40.2857 8.92857 41.1429C9.78571 42 10.7143 42.7857 11.7143 43.4286C12.7143 44.0714 13.7857 44.7143 14.9286 45.1429C16.0714 45.5714 17.2143 45.9286 18.4286 46.2143C19.5714 46.4286 20.7857 46.5714 22.0714 46.5714C23.2857 46.5714 24.5 46.4286 25.7143 46.2143C26.9286 46 28.0714 45.6429 29.2143 45.1429C30.3571 44.6429 31.4286 44.0714 32.4286 43.4286C33.4286 42.7143 34.4286 42 35.2857 41.1429C36.1429 40.2857 36.9286 39.3571 37.5714 38.3571C38.2143 37.3571 38.8571 36.2857 39.2857 35.1429C39.7143 34.0714 40.0714 32.8571 40.3571 31.7143C40.5714 30.5714 40.7143 29.2857 40.7143 28.0714C40.7143 26.8571 40.5714 25.6429 40.3571 24.4286C40.1429 23.2143 39.7857 22.0714 39.2857 20.9286C38.7857 19.7857 38.2143 18.7143 37.5714 17.7143C36.8571 16.7143 36.1429 15.7143 35.2857 14.8571C34.4286 13.8571 33.5 13.0714 32.5 12.4286ZM37.4286 11.8571C38.0714 12.4286 38.5714 13 39.1429 13.6429C39.6429 14.2857 40.1429 14.9286 40.6429 15.6429L42.4286 14.1429L39.2857 10.3571L37.4286 11.8571ZM15.7143 3.07143H19.1429H25.0714H28.5714V1.07143H15.7143V3.07143Z" fill="#3C6EB2"/>
</svg>
