<svg width="52" height="54" viewBox="0 0 52 54" fill="none" xmlns="http://www.w3.org/2000/svg">
<path d="M26 53C23.5439 53 21.7047 51.6406 21.1635 50H30.8365C30.2953 51.6406 28.4561 53 26 53Z" stroke="#0C3165" stroke-width="2"/>
<path d="M21.8499 7.62199L22.6667 7.46975V6.63892V3.72973C22.6667 2.35373 24.0085 1 26 1C27.9915 1 29.3333 2.35373 29.3333 3.72973V6.63892V7.46975L30.1501 7.62199C38.8639 9.24619 45.2222 15.8827 45.2222 23.6216V38.5405V38.9992L45.5699 39.2985L51 43.9722V45H1V43.9722L6.43012 39.2985L6.77778 38.9992V38.5405V23.6216C6.77778 15.8827 13.1361 9.24619 21.8499 7.62199Z" stroke="#0C3165" stroke-width="2"/>
<circle cx="26" cy="35" r="3" fill="#D63028"/>
<path d="M26 17V27" stroke="#D63028" stroke-width="5" stroke-linecap="round" stroke-linejoin="round"/>
</svg>
