<svg width="50" height="50" viewBox="0 0 50 50" fill="none" xmlns="http://www.w3.org/2000/svg">
<path d="M28.4284 33.8571C28.4284 33.7857 28.4284 33.7857 28.4284 33.6429V32H21.5713V33.6429V33.7143V33.7857V36.8571H28.4284V33.8571Z" fill="#828F96"/>
<path d="M28.4283 33.8572C28.4283 33.8572 28.4283 33.7857 28.4283 33.8572C28.4283 33.7857 28.4283 33.7857 28.4283 33.6429V32H21.5712V33.6429V33.7143V33.7857V36.8572H28.4283V33.8572ZM1.21401 34.2857V41C1.21401 41.6429 1.49972 42.1429 1.85686 42.6429C2.21401 43 2.85686 43.2857 3.35686 43.2857H46.4283C47.0712 43.2857 47.5712 43 47.9283 42.6429C48.2854 42.2143 48.5712 41.6429 48.5712 41V34.2857H29.4997V37.4286C29.4997 37.7143 29.214 38 28.9283 38H20.9997C20.714 38 20.4283 37.7143 20.4283 37.4286V34.2857H1.21401ZM46.4997 12.4286H33.0711H16.8569H3.49972C2.85686 12.4286 2.35686 12.7143 1.99972 13.0714C1.64258 13.5 1.35686 14.0714 1.35686 14.7143V33.2857H20.5711V31.5714C20.5711 31.2857 20.8569 31.0714 21.1426 31.0714H29.0712C29.3569 31.0714 29.6426 31.3572 29.6426 31.5714V33.2857H48.8569V14.7143C48.8569 14.0714 48.5712 13.5714 48.214 13.0714C47.714 12.7143 47.1426 12.4286 46.4997 12.4286ZM3.49972 11.3572H16.3569V8.35716C16.3569 7.78573 16.5711 7.35716 16.9283 7.00002C17.214 6.64287 17.714 6.42859 18.214 6.42859H31.6426C32.214 6.42859 32.6426 6.64287 32.9997 7.00002C33.3569 7.35716 33.5711 7.78573 33.5711 8.35716V11.3572H46.4283C47.3569 11.3572 48.1426 11.7143 48.7854 12.3572C49.4283 13 49.7854 13.7857 49.7854 14.7143V33.8572V41.2143C49.7854 42.1429 49.4283 43 48.7854 43.5C48.1426 44.1429 47.3569 44.5 46.4283 44.5H3.49972C2.57115 44.5 1.78544 44.1429 1.14258 43.5C0.499721 42.8572 0.142578 42.0714 0.142578 41.2143V14.7857C0.142578 13.8572 0.499721 13 1.14258 12.4286C1.78544 11.7143 2.57115 11.3572 3.49972 11.3572ZM17.4997 11.3572H32.5711V8.35716C32.5711 8.07145 32.4997 7.92859 32.2854 7.7143C32.0712 7.50002 31.9283 7.42859 31.6426 7.42859H18.2854C17.9997 7.42859 17.8569 7.50002 17.6426 7.7143C17.4283 7.92859 17.3569 8.07145 17.3569 8.35716V11.3572H17.4997V11.3572Z" fill="#0C3165"/>
</svg>
