<svg width="48" height="50" viewBox="0 0 48 50" fill="none" xmlns="http://www.w3.org/2000/svg">
<g clip-path="url(#clip0_1_113)">
<path fill-rule="evenodd" clip-rule="evenodd" d="M26.7778 42C27.5292 42 28.2806 41.6429 28.7588 41.1429C29.2369 40.6429 29.5785 39.8571 29.5785 39.0714C29.5785 38.2857 29.2369 37.5 28.7588 37C28.2806 36.5 27.5975 36.1429 26.7778 36.1429C26.0264 36.1429 25.2749 36.5 24.7968 37C24.3186 37.5 23.977 38.2857 23.977 39.0714C23.977 39.8571 24.3186 40.6429 24.7968 41.1429C25.2749 41.6429 26.0264 42 26.7778 42ZM10.9298 24.9286C10.7932 24.8571 10.7249 24.7143 10.5883 24.6429C10.1101 24.1429 9.76855 23.3571 9.76855 22.5714C9.76855 21.7857 10.1101 21 10.5883 20.5C11.0664 20 11.8179 19.6429 12.5693 19.6429C13.3207 19.6429 14.0721 20 14.5503 20.5C15.0284 21 15.37 21.7857 15.37 22.5714C15.37 23.3571 15.0284 24.1429 14.5503 24.6429C14.0721 25.1429 13.3207 25.5 12.5693 25.5C11.9545 25.4286 11.3397 25.2857 10.9298 24.9286ZM36.8877 13.2857C36.8877 13.3571 36.8877 13.3571 36.8877 13.4286C36.8877 14.2143 36.5461 15 36.0679 15.5C35.5898 16 34.8384 16.3571 34.0869 16.3571C33.3355 16.3571 32.5841 16 32.1059 15.5C31.6278 15 31.2862 14.2143 31.2862 13.4286C31.2862 12.6429 31.6278 11.8571 32.1059 11.3571C32.5841 10.8571 33.3355 10.5 34.0869 10.5C34.8384 10.5 35.5898 10.8571 36.0679 11.3571C36.5461 11.8571 36.8193 12.5 36.8877 13.2857Z" fill="white"/>
<path fill-rule="evenodd" clip-rule="evenodd" d="M26.7775 42C27.529 42 28.2804 41.6429 28.7585 41.1429C29.2367 40.6429 29.5783 39.8571 29.5783 39.0714C29.5783 38.2857 29.2367 37.5 28.7585 37C28.2804 36.5 27.5973 36.1429 26.7775 36.1429C26.0261 36.1429 25.2747 36.5 24.7966 37C24.3184 37.5 23.9768 38.2857 23.9768 39.0714C23.9768 39.8571 24.3184 40.6429 24.7966 41.1429C25.2747 41.6429 26.0261 42 26.7775 42ZM23.7036 1.28571C20.1515 1.28571 16.8043 2.21429 13.7986 3.71429C13.0472 6.07143 12.5007 8.57143 12.2958 11.0714C12.2275 11.5 12.2275 11.9286 12.2275 12.3571C15.643 12.8571 19.1268 13.7857 22.4057 15.1429C24.8649 14.0714 27.4606 13.2857 30.0564 12.8571C30.1931 11.9286 30.6029 11.0714 31.2177 10.4286C31.4226 10.2143 31.6276 10.0714 31.8325 9.92857C30.9445 8.42857 29.8515 7 28.5536 5.57143C27.1874 4.07143 25.548 2.64286 23.7036 1.28571ZM12.2958 4.57143C11.681 6.64286 11.3395 8.78571 11.1345 10.9286C11.0662 11.3571 11.0662 11.7857 11.0662 12.2143C9.01693 12 6.89932 11.9286 4.91832 12.0714C5.80636 10.7143 6.7627 9.35714 7.92397 8.21429C9.22186 6.85714 10.6564 5.64286 12.2958 4.57143ZM4.0986 13.4286C2.25423 16.8571 1.22958 20.7857 1.22958 25C1.22958 26.6429 1.3662 28.2143 1.70775 29.7857C3.00564 30.2143 4.71339 30.6429 6.7627 30.9286C7.58242 29 8.60707 27.1429 9.76834 25.5C9.01693 24.7143 8.60707 23.7143 8.60707 22.5C8.60707 21.3571 9.08524 20.2857 9.76834 19.5C10.1782 19.0714 10.7247 18.7143 11.3395 18.5C11.1345 16.8571 10.9979 15.1429 11.0662 13.4286C8.67538 13.2143 6.35284 13.2143 4.0986 13.4286ZM1.98099 31.2143C2.59578 33.5714 3.55212 35.8571 4.85001 37.8571C5.12325 35.8571 5.60143 33.9286 6.28453 32.1429C4.57677 31.8571 3.14226 31.5714 1.98099 31.2143ZM5.87467 39.4286C6.0796 36.9286 6.62608 34.5714 7.4458 32.3571V32.2857C10.3148 32.6429 13.662 32.9286 17.2141 32.8571L17.3508 33C18.9219 34.8571 20.698 36.5 22.8839 37.8571C22.8156 38.2143 22.7473 38.5714 22.7473 39C22.7473 39.7143 22.8839 40.3571 23.1571 40.9286C21.3811 42 19.4001 42.8571 17.3508 43.5C15.2331 44.1429 13.0472 44.4286 10.793 44.4286C9.70003 43.6429 8.74369 42.7857 7.78735 41.7857C7.17256 41.0714 6.48946 40.2857 5.87467 39.4286ZM12.7057 45.6429C14.4134 45.5 16.1212 45.2143 17.7606 44.7143C19.9465 44.0714 21.9958 43.1429 23.9768 42C24.7282 42.7857 25.6846 43.2143 26.8459 43.2143C28.0071 43.2143 28.9635 42.7143 29.7149 42C29.9881 41.7143 30.1931 41.4286 30.3297 41.1429C31.8325 41.5714 33.4719 41.8571 35.1797 42.0714C36.5459 42.2143 37.9804 42.2857 39.4832 42.2857C35.4529 46.2857 29.9881 48.7143 23.9768 48.7143C19.8099 48.7143 15.9846 47.5714 12.7057 45.6429ZM40.6445 41C41.8058 39.6429 42.8304 38.2143 43.7184 36.5714C42.8304 33.7143 41.191 30.9286 39.0734 28.3571C37.5705 29.1429 35.9311 29.8571 34.2233 30.3571C33.1987 32.6429 31.8325 34.7143 30.1931 36.6429C30.6029 37.2857 30.8762 38.0714 30.8762 38.9286C30.8762 39.2143 30.8762 39.5714 30.8078 39.8571C32.2424 40.2143 33.7452 40.5 35.3163 40.7143C36.9557 41 38.7318 41.0714 40.6445 41ZM44.4699 35.0714C43.5135 32.5714 42.0107 30.0714 40.1663 27.7857C42.8304 26.2143 45.0163 24.2143 46.4508 21.6429C46.5875 22.7143 46.6558 23.8571 46.6558 25C46.5875 28.5714 45.8361 32 44.4699 35.0714ZM46.041 19.6429C45.7677 18.2857 45.2896 16.9286 44.8114 15.6429C43.7184 15.2143 42.5572 14.7857 41.3276 14.5C40.2346 14.2143 39.1417 14.0714 38.0487 13.9286C37.9121 14.8571 37.5022 15.7143 36.8874 16.4286C36.6142 16.7143 36.2726 17 35.8628 17.2143C36.2726 19.3571 36.341 21.5 36.0677 23.6429C37.229 24.6429 38.3219 25.7857 39.2783 26.8571C42.3522 25.0714 44.7431 22.7143 46.041 19.6429ZM43.9917 14C43.172 13.7143 42.3522 13.5 41.5325 13.2857C40.3712 13 39.1417 12.7857 37.9804 12.6429C37.8438 11.7857 37.4339 11.0714 36.8874 10.4286C36.136 9.64286 35.1797 9.21429 34.0184 9.21429C33.6086 9.21429 33.267 9.28571 32.8571 9.35714C31.9008 7.78571 30.7395 6.21429 29.3733 4.64286C28.3487 3.5 27.1191 2.35714 25.8212 1.28571C31.286 1.78571 36.2726 4.28571 39.9614 8.14286C41.6008 9.92857 42.967 11.8571 43.9917 14ZM7.03594 7.28571C11.3395 2.78571 17.2824 0 23.9085 0C30.5346 0 36.4776 2.78571 40.7811 7.28571C45.153 11.8571 47.817 18.0714 47.817 25C47.817 31.9286 45.153 38.1429 40.8494 42.6429C36.4776 47.2143 30.5346 50 23.9085 50C17.2824 50 11.3395 47.2143 6.96763 42.7143C6.21622 41.8571 5.46481 40.9286 4.7817 40C1.77606 35.8571 0 30.6429 0 25C0 18.0714 2.66409 11.8571 7.03594 7.28571ZM29.305 35.7857C28.6219 35.2143 27.7339 34.8571 26.7775 34.8571C25.6846 34.8571 24.6599 35.3571 23.9085 36.0714C23.7036 36.2857 23.4987 36.5 23.362 36.7857C21.6543 35.6429 20.1515 34.3571 18.8536 32.9286C22.7473 32.7857 26.7092 32.3571 30.4663 31.5C31.1494 31.3571 31.8325 31.1429 32.5156 31C31.6959 32.6429 30.6029 34.2857 29.305 35.7857ZM10.9296 24.9286C10.793 24.8571 10.7247 24.7143 10.5881 24.6429C10.1099 24.1429 9.76834 23.3571 9.76834 22.5714C9.76834 21.7857 10.1099 21 10.5881 20.5C11.0662 20 11.8176 19.6429 12.5691 19.6429C13.3205 19.6429 14.0719 20 14.55 20.5C15.0282 21 15.3698 21.7857 15.3698 22.5714C15.3698 23.3571 15.0282 24.1429 14.55 24.6429C14.0719 25.1429 13.3205 25.5 12.5691 25.5C11.9543 25.4286 11.3395 25.2857 10.9296 24.9286ZM10.7247 26.2857C11.2712 26.5714 11.886 26.7857 12.5691 26.7857C12.9106 26.7857 13.1838 26.7143 13.5254 26.6429C14.2768 28.4286 15.2331 30.0714 16.3944 31.7143C13.3888 31.7143 10.5198 31.5 8.06059 31.2143C8.74369 29.4286 9.63172 27.7857 10.7247 26.2857ZM14.6184 26.1429C14.8916 25.9286 15.1648 25.7143 15.4381 25.5C16.1895 24.7143 16.5993 23.7143 16.5993 22.5C16.5993 21.7857 16.3944 21.0714 16.1212 20.5C18.1022 18.9286 20.2198 17.5714 22.474 16.5C24.5233 17.3571 26.436 18.2857 28.3487 19.4286C30.6712 20.7857 32.8571 22.3571 34.8381 24.0714C34.7015 25.0714 34.4966 26 34.2233 27C34.0184 27.7857 33.6769 28.5714 33.4036 29.3571C32.4473 29.6429 31.4226 29.9286 30.3297 30.1429C26.2994 31.0714 21.9958 31.5 17.8972 31.5714C16.531 29.9286 15.4381 28.0714 14.6184 26.1429ZM15.3698 19.5C14.6184 18.7857 13.662 18.2857 12.5691 18.2857H12.5007C12.2958 16.7143 12.2275 15.1429 12.2275 13.6429C15.1648 14.0714 18.0339 14.8571 20.9029 15.9286C18.9219 16.9286 17.0775 18.1429 15.3698 19.5ZM36.8874 13.2857C36.8874 13.3571 36.8874 13.3571 36.8874 13.4286C36.8874 14.2143 36.5459 15 36.0677 15.5C35.5895 16 34.8381 16.3571 34.0867 16.3571C33.3353 16.3571 32.5839 16 32.1057 15.5C31.6276 15 31.286 14.2143 31.286 13.4286C31.286 12.6429 31.6276 11.8571 32.1057 11.3571C32.5839 10.8571 33.3353 10.5 34.0867 10.5C34.8381 10.5 35.5895 10.8571 36.0677 11.3571C36.5459 11.8571 36.8191 12.5 36.8874 13.2857ZM34.7015 17.5714C34.9748 19.2857 35.0431 20.9286 34.9748 22.6429C33.1304 21.0714 31.0811 19.6429 28.8952 18.3571C27.324 17.4286 25.6846 16.5714 24.0451 15.8571C26.0261 15.0714 28.0754 14.5 30.1247 14.1429C30.2614 15 30.6712 15.7857 31.2177 16.3571C31.9691 17.1429 32.9255 17.5714 34.0867 17.5714C34.2917 17.6429 34.4966 17.6429 34.7015 17.5714ZM38.1853 27.4286C37.0924 28 35.9994 28.4286 34.7698 28.8571C34.9748 28.3571 35.1114 27.8571 35.248 27.3571C35.4529 26.5714 35.6579 25.7857 35.7945 25.0714C36.6825 25.8571 37.4339 26.6429 38.1853 27.4286Z" fill="#3C6EB2"/>
</g>
<defs>
<clipPath id="clip0_1_113">
<rect width="47.817" height="50" fill="white"/>
</clipPath>
</defs>
</svg>
